<?xml version="1.0" encoding="utf-8"?>
<!-- Generator: Adobe Illustrator 28.0.0, SVG Export Plug-In . SVG Version: 6.00 Build 0)  -->
<svg version="1.1" id="Vector_layer_00000085953102782762921070000008773649461859660470_"
	 xmlns="http://www.w3.org/2000/svg" xmlns:xlink="http://www.w3.org/1999/xlink" x="0px" y="0px" viewBox="0 0 1500 2000"
	 style="enable-background:new 0 0 1500 2000;" xml:space="preserve">
<style type="text/css">
	.st0{clip-path:url(#SVGID_00000036957799707165204270000015860872885990166688_);fill:#47389A;}
	.st1{clip-path:url(#SVGID_00000036957799707165204270000015860872885990166688_);}
	.st2{clip-path:url(#SVGID_00000036957799707165204270000015860872885990166688_);fill:#ED9258;}
	.st3{clip-path:url(#SVGID_00000036957799707165204270000015860872885990166688_);fill:#F5BB89;}
	.st4{clip-path:url(#SVGID_00000036957799707165204270000015860872885990166688_);fill:#D65222;}
	.st5{clip-path:url(#SVGID_00000036957799707165204270000015860872885990166688_);fill:#A02B14;}
	.st6{clip-path:url(#SVGID_00000036957799707165204270000015860872885990166688_);fill:#AE472F;}
	.st7{clip-path:url(#SVGID_00000036957799707165204270000015860872885990166688_);fill:#FAAC66;}
	.st8{clip-path:url(#SVGID_00000036957799707165204270000015860872885990166688_);fill:#651006;}
	.st9{clip-path:url(#SVGID_00000036957799707165204270000015860872885990166688_);fill:#F69C4C;}
	.st10{clip-path:url(#SVGID_00000036957799707165204270000015860872885990166688_);fill:#FFF628;}
</style>
<g>
	<defs>
		<path id="SVGID_1_" d="M1500,0v2000H0V0H1500z"/>
	</defs>
	<clipPath id="SVGID_00000067222023812802645600000003679593430649804436_">
		<use xlink:href="#SVGID_1_"  style="overflow:visible;"/>
	</clipPath>
	<path style="clip-path:url(#SVGID_00000067222023812802645600000003679593430649804436_);fill:#47389A;" d="M1500,0v2000H0V0H1500z
		"/>
	<path style="clip-path:url(#SVGID_00000067222023812802645600000003679593430649804436_);" d="M736.1,2027.5
		c-5.1-1.4-3.3-7.1-3.9-11c-0.9-12-2.7-23.9-4.5-35.8c-6.1-37.3-12.4-74.5-19.4-111.6c-12.4-68.8-37.8-100.3-81.3-152
		c-46.2-58.5-83.5-124.4-104.2-196.3c-6.6-28-20.1-72.4,6.9-92.8c5.2-3.8,11.2,3.9,6.1,7.9c-4.5,3.1-7.9,7.7-9.7,12.8
		c-7.1,31.6,4.6,64.4,14.4,94.2c19.2,55.6,48.4,107.3,83.9,154.1c29.1,39.4,66.3,74.6,81.2,122.5c17.9,58.5,25,119.7,34.9,180
		C740.4,2007,747.7,2029,736.1,2027.5C736.1,2027.5,736.1,2027.5,736.1,2027.5z"/>
	<path style="clip-path:url(#SVGID_00000067222023812802645600000003679593430649804436_);" d="M610.1,1606.8
		c-4.2-0.2-4.6-4.6-6.1-7.6c-2.6-6.2-5.3-12.5-8.3-18.6c-10.4-21.7-23.4-41.9-35.7-62.4c-15.5-25.7-28-54-30-84.3
		c-4.4-33,12.4-64.8,47.7-68.4c2.7-0.3,5.2,1.9,5.4,4.6c0.2,6.9-8.2,5.1-12.6,6.9c-20.3,6-31.8,25.6-30.9,46.2
		c0.3,20,4.5,40,12.6,58.3c15.4,34.6,39.1,64.8,54.7,99.4c1.7,3.6,3.2,7.2,4.8,10.9C613.8,1596.5,619.2,1606.2,610.1,1606.8z"/>
	<path style="clip-path:url(#SVGID_00000067222023812802645600000003679593430649804436_);" d="M660.8,1573
		c-38.3-67.3-73.5-138.7-85.4-216c-1.6-17.1,7.5-35.9,24-42.2c17.1-5.9,36.7-8.2,53.6-0.4c8.1,3.6,13.9,10.8,20.6,16.4
		c13.5,11.9,26.9,23.9,40.4,35.8c4,3.4,7.9,6.9,12.1,10.1c2.4,1.5,3.3,4.8,1.6,7.1c-1.5,2.3-5,3.1-7.2,1.2
		c-4.8-3.7-9.4-7.6-13.9-11.6c-15.4-13.6-30.7-27.1-46-40.8c-14.5-16.8-39.3-15.2-58.4-8.2c-12.8,5.5-18.7,21.1-16.5,34.3
		c2.2,14.3,5.6,28.5,9.6,42.4c9,33.8,22.4,66.1,37.4,97.6c7.8,16.3,16.3,32.3,25,48.1c3.5,6.3,6.9,12.8,10.4,19.1
		c1.1,1.2,1.8,2.8,1.4,4.6C668.9,1574.6,663.4,1576.1,660.8,1573z"/>
	<path style="clip-path:url(#SVGID_00000067222023812802645600000003679593430649804436_);" d="M706.2,1495.7
		c-3.9-0.2-5.9-4.7-3.9-7.9c1.6-4.1,2.7-8.3,3.8-12.6c2.6-10.1,4.6-20.3,6.4-30.5c9-44.6,12-90.1,9.7-135.5
		c-1.5-71.6-14.6-143.3-8.4-215c1.5-15,6.8-30.5,20-39.1c15.9-11.4,39.7-15.5,56-3c20.4,17.5,23.2,46.9,24.5,72.2
		c1.7,35.6,0.9,71.3,1.1,106.9c0.2,55.6,4.1,111.8,19.3,165.5c4.3,15.3,10.2,30.1,16.5,44.7c1.7,4-3.1,8.3-6.9,6.2
		c-1.2-0.6-2-1.6-2.5-2.8c-3.9-9.1-7.6-18.2-11-27.5c-3.5-9.7-6.3-19.6-8.9-29.6c-14.5-57.4-16.9-117.1-16.5-176.1
		c0.1-20.7,0.1-41.5-0.3-62.2c0-0.1,0-0.1,0-0.2c0-1.2-0.1-2.5-0.1-3.7c-0.6-19.7-0.6-39.8-5.8-58.9c-3.8-11.8-9.4-25.2-21.7-30.1
		c-14.8-5.4-32.2,0.5-43.1,11.2c-14.5,16.3-11.5,44.8-12.3,65.4c0.1,6.1,0.3,12.3,0.5,18.4c0,0.1,0,0.3,0,0.4c0,1.3-0.1,2.6,0.1,3.9
		c0,0.2,0.1,0.4,0.1,0.6c2.7,64.6,10.7,129,10.1,193.8c-0.2,40-6.8,79.6-15,118.6c-2.1,6.2-4.3,26.7-11.2,26.7
		C706.5,1495.7,706.3,1495.7,706.2,1495.7z"/>
	<path style="clip-path:url(#SVGID_00000067222023812802645600000003679593430649804436_);" d="M1001.1,1999.9
		c-1.3-0.4-2.2-1.3-2.9-2.5c-5-8.8-9.5-17.9-13.8-27c-5.7-12.1-11.2-24.3-16.5-36.6c-0.6-1.4-1.2-2.8-1.8-4.1
		c-0.3-0.8-0.7-1.6-1-2.4c0-0.1-0.1-0.2-0.1-0.3c-0.5-0.9-0.8-1.9-1.2-2.8c-1.4-3.2-2.8-6.5-4.2-9.7c-2.7-6.3-5.5-12.6-8.2-18.9
		c-2.8-6.3-5.6-12.6-8.3-19c-5.4-12.7-10.5-25.5-15.3-38.3c-4.8-12.8-9.5-25.7-13.7-38.8c-4.2-13-8.2-26.2-10.6-39.7
		c-1.3-7.3-2.1-14.6-2.6-21.9c-0.4-6.9-0.3-13.9,0.1-20.8c0.2-3.5,0.6-6.9,1.1-10.4c0.4-3.4,0.9-6.8,1.6-10.1
		c1.3-6.8,3.1-13.6,5.2-20.3c3.9-12.8,8.7-25.4,13.2-37.9c4.2-11.5,8.3-23.1,12.3-34.7c4.1-11.9,8.1-23.8,11.4-36
		c1.1-4.4,2.1-8.8,3-13.3c0.9-4.6,1.6-9.2,2.2-13.8c0.4-4,0.6-8,0.7-12c-0.1-4.9-0.6-9.8-1.3-14.6c-0.8-5-2-9.9-3.4-14.8
		c-1.8-5.9-3.9-11.6-6.3-17.3c-5-11.5-10.5-22.8-16.3-33.9c-5.8-11.1-11.6-22.2-18.1-33c-5.4-9-11.1-17.9-16.9-26.7
		c-6-9-12-17.9-18.6-26.4c-4.3-5.4-8.9-10.7-13.8-15.6c-1.5-1.5-3.1-2.9-4.7-4.3c-1.8-1.5-3.6-3-5.5-4.4
		c-5.7-4.2-11.6-8.2-17.7-11.7c-4.5-2.5-9-4.8-13.5-7.3c-0.8-0.5-1.6-0.9-2.5-1.4c-1.2-0.7-2.1-1.6-2.7-3c-0.8-1.8-0.1-4.1,1.4-5.4
		c1-0.9,2.3-1.3,3.6-1.3c1.1,0,2.2,0.5,3,1.2c4.7,2.6,9.6,5,14.3,7.7c6.1,3.4,12,7.3,17.7,11.4c2.9,2.1,5.7,4.3,8.4,6.6
		c2.4,2.1,4.7,4.3,6.9,6.5c4.1,4.2,8,8.7,11.7,13.3c4.2,5.2,8.1,10.6,11.9,16.1c4.1,5.9,8.1,11.8,12,17.8c7.1,10.9,14,22,20.3,33.3
		c3.5,6.2,6.8,12.6,10.1,18.9c3.4,6.4,6.6,12.9,9.8,19.5c3.1,6.4,6.1,12.8,8.9,19.3c2.6,6.1,4.8,12.3,6.6,18.6
		c1.9,6.5,3.2,13.2,4,20c0.8,7.1,1,14.4,0.2,21.5c-1.4,13.5-4.4,26.9-8.2,39.9c-3.8,13-8.4,25.7-12.8,38.5
		c-4.3,12.5-9,24.9-13.5,37.4c-4,10.9-7.8,21.9-10.8,33.1c-1.7,6.7-3,13.5-3.9,20.3c-0.9,7.3-1.4,14.5-1.3,21.8
		c0.1,7.3,0.8,14.6,1.8,21.9c0.7,5,1.7,10,2.8,14.9c1,4.5,2.2,8.9,3.5,13.4c3.8,13.1,8.1,26.1,12.8,39c4.6,12.8,9.4,25.5,14.5,38.1
		c2.1,5.2,4.3,10.4,6.5,15.6c4.5,10.3,9,20.6,13.5,30.9c4.3,10,8.7,19.9,13,29.9c4.9,11.3,10,22.6,15.3,33.7
		c4.1,8.6,8.3,17.1,13,25.3c1.4,2.4,0.2,5.5-2.2,6.7c-0.7,0.4-1.5,0.5-2.3,0.5C1002.1,2000.1,1001.6,2000.1,1001.1,1999.9z
		 M814.8,1317.3c0.2,0,0.5,0,0.7,0c0,0,0,0,0,0c0.2,0,0.4-0.1,0.7-0.1c0,0,0,0,0,0c0.2-0.1,0.4-0.1,0.6-0.2c0,0,0,0,0,0
		C816.1,1317.2,815.5,1317.3,814.8,1317.3z"/>
	<path style="clip-path:url(#SVGID_00000067222023812802645600000003679593430649804436_);" d="M1005.7,2007.8
		c-3.9-1.8-4.7-6.9-7.1-10.1c-1.4-1.7-1.7-4.1-0.6-6c1.3-2.2,4.2-3.1,6.5-1.9c1.1,0.5,1.8,1.4,2,1.8c1.8,3,3.4,6.2,5.2,9.3
		C1013.9,2004.6,1009.7,2009.4,1005.7,2007.8z"/>
	<path style="clip-path:url(#SVGID_00000067222023812802645600000003679593430649804436_);" d="M841.3,224.9
		C841.2,224.9,841.2,224.9,841.3,224.9z"/>
	<path style="clip-path:url(#SVGID_00000067222023812802645600000003679593430649804436_);" d="M694.1,1153.4c0,0-0.1,0-0.1,0
		c0,0-0.1,0-0.1,0c-1.8-0.2-3.7-0.4-5.5-0.7c-11.6-1.5-23.1-3.5-34.5-5.8c-0.1,0-0.1,0-0.2-0.1c-12.5-2.6-24.9-5.7-37.1-9.3
		c-28.1-8.2-55.4-19.1-81.5-32.3c-30.3-15.4-58.9-34.1-85.3-55.6c-25.6-21-49-44.6-69.8-70.4c-22.3-27.7-41.4-58-56.9-89.9
		c-15-30.9-26.6-63.4-34.6-96.7c-7.3-30.7-11.6-62-12.7-93.5c-1.2-31.8,0.9-63.8,6.2-95.2c5.4-31.9,13.9-63.2,25.7-93.4
		c12-30.8,27.2-60.4,45.3-88.1c18.8-28.8,40.8-55.5,65.3-79.5c12.4-12.2,25.5-23.7,39.2-34.4c14.5-11.3,29.6-21.8,45.3-31.4
		c30.3-18.6,62.8-33.6,96.4-44.9c32.7-11,66.6-18.4,100.9-22c31.6-3.3,63.5-3.5,95.1-0.5c36.1,3.5,71.9,11,106.3,22.7
		c33.3,11.3,65.3,26.1,95.3,44.4c30,18.3,58.1,39.9,83.4,64.5c26,25.2,49.1,53.4,68.7,83.8c18.8,29.2,34.5,60.5,46.5,93.1
		c6,16.4,11.2,33.1,15.3,50c4.4,18.1,7.8,36.4,10.2,54.9c4.5,35.3,4.8,71.2,1.3,106.6c-3.6,36.3-11.6,72.1-23.3,106.5
		c-11.8,34.6-27.8,67.7-47.2,98.7c-9.7,15.5-20.4,30.5-31.9,44.7c-2.7,3.4-5.5,6.7-8.3,10c-1.3,1.6-2.7,3.1-4,4.7
		c-0.6,0.7-1.3,1.4-1.9,2.2c-0.4,0.5-0.8,0.9-1.2,1.4c-0.2,0.2-0.3,0.3-0.5,0.5c-0.1,0.1-0.2,0.2-0.3,0.4c-0.2,0.2-0.4,0.5-0.6,0.7
		c-0.1,0.1-0.1,0.1-0.2,0.2c-0.2,0.2-0.4,0.4-0.6,0.6c-25,27.6-53.1,52.2-83.8,73.3c-30.9,21.2-64.4,38.7-99.4,52
		c-34.3,13.1-70,22-106.4,26.9c-2.5,0.3-5,0.6-7.5,0.9c0-1,0-1.9,0-2.9c0-1.7-0.1-3.4-0.1-5.1c0-0.1,0-0.3,0-0.4
		c10.6-1.3,21.1-2.9,31.5-4.8c19.1-3.6,37.9-8.4,55.8-14.2c10-3.2,19.9-6.8,29.7-10.6c9.6-3.8,19-7.9,28.2-12.3
		c9-4.3,17.9-8.9,26.7-13.8c8.8-4.9,17.5-10.1,25.5-15.3c8.9-5.8,17.6-11.7,26-18c8.4-6.3,16.5-12.8,24.5-19.5
		c11.2-9.6,22-19.7,32.3-30.3c2.6-2.7,5.2-5.4,7.7-8.2c1.2-1.3,2.3-2.5,3.5-3.8c0.4-0.6,1-1.1,1.5-1.7c13.7-15.4,26.4-31.7,38-48.7
		c5.7-8.5,11.1-17.1,16.3-25.9c5.2-8.8,10-17.7,14.4-26.5c0.1-0.1,0.1-0.2,0.2-0.4l0-0.1c4.6-9.3,8.9-18.6,13-28.2
		c4.1-9.7,7.8-19.4,11-28.8c3.3-9.7,6.3-19.4,9-29.2c2.8-10.1,5.1-20.4,7.3-30.6c2-10,3.7-20,5-30.1c1.3-10,2.3-20,3.1-30.1
		c1.3-19.7,1.4-39.4,0.3-59.1c-0.6-9.8-1.4-19.5-2.6-29.2c-1.3-10.1-2.8-20.2-4.7-30.3c-1.9-9.8-4-19.4-6.5-29.1
		c-2.3-9.1-5-18.2-7.8-27.1c0,0,0-0.1,0-0.1l0,0c-6.3-19.2-13.7-38-22.3-56.3c-8.7-18.2-18.4-35.8-29.3-52.8
		c-11.4-17.7-24-34.6-37.2-50.2c-13.6-15.9-28.2-30.8-43.3-44.5c-15.8-14.1-32.4-27.2-49.9-39.1c-17.4-11.7-35.5-22.3-54.2-31.7
		c-18.7-9.2-37.8-17.2-57.5-24c-19.3-6.5-38.9-11.8-58.4-15.7c-0.2,0-0.3-0.1-0.5-0.1c-19.4-3.8-39.1-6.5-58.5-7.9
		c-20.1-1.4-40.3-1.5-59.8-0.4c-19.9,1.2-39.7,3.6-58.7,7.2c-19.4,3.7-38.6,8.6-57.1,14.5c-19.2,6.2-38,13.7-56.3,22.3
		c-18.1,8.6-35.7,18.4-52.6,29.2c-17.6,11.4-34.4,23.8-50.4,37.4c-15.7,13.4-30.5,27.8-43.9,42.7c-14.2,15.8-27.4,32.6-39.4,50.2
		c-11.8,17.4-22.4,35.5-31.8,54.3c-9.1,18.5-17.1,37.5-23.8,56.9c-6.5,19-11.7,38.4-15.7,58c-4,19.9-6.7,40-8.2,59.8
		c-1.4,20.1-1.5,40.3-0.4,60.4c1.2,19.6,3.6,39.1,7.1,58.4c3.7,19.4,8.5,38.5,14.5,57.3c0,0,0,0,0,0.1l0.1,0.2
		c6.3,19.3,13.7,38.1,22.1,55.9c8.7,18.3,18.5,36,29.3,52.8c0,0.1,0.1,0.1,0.1,0.2l0,0c11.2,17.3,23.4,33.8,36.7,49.5
		c13.8,16.2,28.7,31.5,44.2,45.4c15.6,13.9,32.1,26.9,49.4,38.6c17.2,11.6,35.1,22.1,53.6,31.4c18.5,9.2,37.5,17.1,56.4,23.7
		c19.6,6.7,39.6,12.2,59.4,16.2c8.3,1.7,16.7,3.1,25.1,4.4c4.1,0.6,8.2,1.1,12.3,1.6c1.9,0.2,3.8,0.4,5.7,0.6
		c5.6,0.6,11.3,1.1,16.8,1.5c1.8,0.1,3.6,0.2,5.3,0.3c0,0.2,0,0.4,0.1,0.6c-0.2,1.3-0.2,2.6-0.3,3.9c0,1.3-0.1,2.6,0.1,3.8
		C713,1155.3,703.5,1154.5,694.1,1153.4z"/>
	<path style="clip-path:url(#SVGID_00000067222023812802645600000003679593430649804436_);" d="M319.7,505.4
		c-0.1,0.1-0.1,0.3-0.2,0.4c0,0,0,0.1-0.1,0.1C319.6,505.8,319.6,505.6,319.7,505.4z"/>
	<path style="clip-path:url(#SVGID_00000067222023812802645600000003679593430649804436_);" d="M314,498.6c0,0.5,0,1,0.2,1.4
		c-0.7-8.8,10.3-7.6,10-0.1c-1.5,0.4-2.8,1.5-3.4,3c-0.2,0.4-0.3,0.8-0.5,1.2c-0.7,0.5-1.3,1.2-1.7,2.1c-0.8,1.9-1.6,3.8-2.3,5.7
		c-0.6,1.7-1.3,3.4-1.9,5.1c-0.7,2.1-1.4,4.2-2.1,6.4C312.8,515,313.3,506.8,314,498.6z"/>
	<path style="clip-path:url(#SVGID_00000067222023812802645600000003679593430649804436_);" d="M339.7,767.3
		c0.4-0.2,0.7-0.5,1.1-0.9c1.2-1.2,2.2-2.7,3.2-4.1c0.5-0.6,1-1.3,1.4-1.9c0.5-0.4,0.9-0.8,1.3-1.3c0.2-0.3,0.5-0.6,0.7-0.9
		c1.1,4.1,2.2,8.2,3.4,12.2c-0.7,0.7-1.4,1.6-2,2.4c-1.2,0.8-2.3,1.9-3.4,3c-0.9,0.9-1.8,1.8-2.4,2.9
		C341.8,775,340.7,771.2,339.7,767.3z"/>
	<path style="clip-path:url(#SVGID_00000067222023812802645600000003679593430649804436_);" d="M364.2,815.6
		c0.4,1.3,0.8,2.5,1.2,3.8c-0.2,0.1-0.4,0.2-0.5,0.2C364.6,818.3,364.4,817,364.2,815.6z"/>
	<path style="clip-path:url(#SVGID_00000067222023812802645600000003679593430649804436_);" d="M496,1082.8
		c-8.3-8.9-16.2-18-23.7-27.2c0.2,0.1,0.4,0.2,0.6,0.3c1.2,0.7,2.5,1.5,3.7,2.2c0.5,0.5,1.1,1,1.7,1.4c1.1,0.7,2.2,1.4,3.3,2
		c1.7,1,3.4,2,5.1,3c1.9,1.1,3.7,2.1,5.6,3.1c1,0.5,2,1.1,3,1.6c1.1,0.6,2.2,1.1,3.4,1.6c1.5,1.7,3.1,3.4,4.6,5.1
		c3.4,3.5-0.1,8.5-3.9,8.5c0,0,0,0,0,0C498.3,1084.5,497.1,1084,496,1082.8z"/>
	<path style="clip-path:url(#SVGID_00000067222023812802645600000003679593430649804436_);" d="M810.9,213.3c-0.3,0.1-0.7,0.1-1,0.2
		C810.2,213.4,810.5,213.4,810.9,213.3z"/>
	<path style="clip-path:url(#SVGID_00000067222023812802645600000003679593430649804436_);" d="M900.9,1050.3
		c-105.2-1.1-205.4-45.8-283.1-115.5C566,892,514.5,845.7,484.4,784.4c-68.8-125.8-52.6-275.3,31.2-389.9
		c71.4-93.6,179.4-157.7,294.3-181c-0.1,0-0.2,0.1-0.3,0.1c4.7-0.9,6.9,2,6.7,4.9c-0.2,2.7-2.6,5.4-7,5.1
		c-22.3,4.2-42.6,11.5-63.9,18.3c-61.8,20.6-118.3,56.3-166.9,99c-131.7,117.1-168.3,305.4-74.8,457.7
		c24.2,41.4,58.4,75.6,94.7,106.5c48.6,42.8,100.6,84.3,161.8,107.3c48.8,19.7,101.3,27.9,153.7,28.4c33.5,0.5,67.5,1.1,100.6-4.3
		c13.9-2.3,27.7-5.5,41.2-9.4c6.8-0.6,20.3-10.3,24-2.4c0,0,0,0,0,0.1c-0.4,0.3-0.7,0.6-1,1c-0.2,0.2-0.4,0.4-0.7,0.6
		c-0.4,0.3-0.8,0.6-1.2,0.8c-0.8,0.6-1.6,1.2-2.4,1.9c-0.9,0.9-1.8,1.8-2.6,2.9c-0.2,0.2-0.3,0.5-0.5,0.7c-9.6,3-19.2,5.9-29,8.3
		c-32.3,8.2-65.6,10.2-98.9,10.2C929.3,1051.1,915.1,1050.7,900.9,1050.3z"/>
	<path style="clip-path:url(#SVGID_00000067222023812802645600000003679593430649804436_);" d="M297.4,822.3c-2-1.8-2.3-5-0.5-7.1
		c19.8-22.6,40.1-44.8,61.1-66.3c49.2-51.9,104-98,163.6-137.5c143.8-96.7,378.9-202.4,554.2-182.7c13.2,0.9,100.7,21.4,90.2,36.6
		c-3.9,4.2-8-0.4-11.7-2.3c-6.5-3.5-13.2-6.6-20.1-9.3c-27.8-9.9-57-16.6-86.6-17.3c-161.9-5.6-366.7,84.2-501.8,170.9
		c-57.6,37.5-112.5,79.3-160.7,128.5c-11.2,11.1-22.2,22.3-33,33.7c-0.2,0.1-0.4,0.3-0.6,0.5c-1,0.9-1.8,2-2.7,3
		c0,0-0.1,0.1-0.1,0.1c-1.2,0.8-2.3,1.9-3.4,2.9c-1.1,1.1-2.2,2.3-2.8,3.7c-11.6,12.5-23,25.1-34.3,37.9c-2.1,2.4-4.6,6-7.7,6
		C299.5,823.5,298.5,823.2,297.4,822.3z M1158.6,458.7c0.5-0.5,1-0.9,1.6-1.1C1159.6,457.8,1159,458.2,1158.6,458.7z"/>
	<path style="clip-path:url(#SVGID_00000067222023812802645600000003679593430649804436_);" d="M482.9,1075.7
		c-155.6-186.4-211.6-373-138.9-609.4c3.4-8.9,24.3-89.5,33.4-62.7c-18.7,41.4-30.5,85.9-40.3,130.2
		c-32.5,150.4-11.2,281.1,66.9,413.8c19.9,33.7,43.1,65.2,66.6,96.5c6.4,8.5,13,16.8,19.8,24.9
		C494.6,1073.6,487.2,1080.7,482.9,1075.7z"/>
	<path style="clip-path:url(#SVGID_00000067222023812802645600000003679593430649804436_);" d="M714.8,1431.8
		c-4.7-1.4-11-12.4-14.6-16.5c-8.4-11.4-15.7-23.6-22-36.3c-1.7-3.3-3.3-6.7-5-10.1c-2.1-3-2.7-7.7,1.5-9.3c5.2-1.9,7.1,4.1,8.9,7.7
		c1.7,3.5,3.4,6.9,5.2,10.4c3.5,6.8,7.4,13.5,11.5,20c5.9,9.2,12.5,17.8,19.5,26.2C722.4,1427.3,719,1432.7,714.8,1431.8z"/>
	<path style="clip-path:url(#SVGID_00000067222023812802645600000003679593430649804436_);" d="M751.9,1121.8
		c-10.2-3.1-18-10.4-20.2-21c-2.4-10.8-3.2-21.8-3.8-32.8c-0.2-3.3,4.6-3.8,5-0.5c0.9,11.3,1.1,33.3,8.2,41.8
		c8.4,9.2,24.8,12.5,35,4.5c11-10.7,10.2-28.6,11.3-42.9c0.2-4.1,0.3-8.1,0.2-12.2c-0.2-1.5,1.1-2.8,2.6-2.8c1.4,0,2.4,1.2,2.4,2.6
		c0.1,4,0,8-0.2,12c-0.2,4.9-0.4,9.8-0.9,14.7C789.7,1109.9,779.6,1129.1,751.9,1121.8z"/>
	<path style="clip-path:url(#SVGID_00000067222023812802645600000003679593430649804436_);fill:#ED9258;" d="M999.9,2000H740.5
		c0-0.2,0-0.4,0-0.5c-9.8-60.2-16.9-121.5-34.9-180c-15-47.9-52.1-83.2-81.2-122.5c-35.5-46.8-64.7-98.4-83.9-154.1
		c-9.7-29.9-21.4-62.7-14.4-94.2c1-2.9,2.6-5.7,4.5-8.1c3.2,27.8,15,53.8,29.4,77.7c12.3,20.5,25.3,40.7,35.7,62.4
		c3,6.1,5.7,12.3,8.3,18.6c1.4,3,1.8,7.4,6.1,7.6c9.1-0.6,3.7-10.3,1.6-15.2c-1.6-3.6-3.1-7.3-4.8-10.9
		c-15.6-34.6-39.3-64.7-54.7-99.4c-8.1-18.4-12.3-38.3-12.6-58.3c-0.8-20.6,10.6-40.2,30.9-46.2c2.2-0.9,5.5-0.9,8.2-1.5
		c14.3,70.3,46.9,135.7,82.1,197.6c2.6,3.2,8.1,1.7,8.8-2.3c0.4-1.7-0.3-3.3-1.4-4.6c-3.5-6.3-6.8-12.8-10.4-19.1
		c-8.7-15.8-17.2-31.8-25-48.1c-15-31.5-28.5-63.9-37.4-97.6c-4-13.9-7.4-28.1-9.6-42.4c-2.2-13.2,3.7-28.8,16.5-34.3
		c19.1-7,43.9-8.6,58.4,8.2c15.3,13.7,30.7,27.2,46,40.8c4.5,4,9.1,7.9,13.9,11.6c0.1,0.1,0.2,0.2,0.4,0.3
		c-1,11.8-2.4,23.5-4.2,35.2c-5.9-7.3-11.5-14.8-16.6-22.7c-4.1-6.5-8-13.1-11.5-20c-1.8-3.4-3.5-6.9-5.2-10.4
		c-1.8-3.6-3.7-9.6-8.9-7.7c-4.1,1.6-3.6,6.3-1.5,9.3c1.7,3.4,3.3,6.7,5,10.1c6.3,12.7,13.6,24.9,22,36.3
		c3.7,4.1,9.9,15.1,14.6,16.5c0,0,0.1,0,0.1,0c-0.8,4.3-1.6,8.6-2.4,12.9c-1.9,10.2-3.8,20.4-6.4,30.5c-1.1,4.2-2.2,8.5-3.8,12.6
		c-2,3.2,0,7.7,3.9,7.9c0.2,0,0.3,0,0.5,0c6.9,0,9-20.6,11.2-26.7c8.2-39,14.8-78.6,15-118.6c0.6-64.8-7.4-129.2-10.1-193.8
		c0-0.2-0.1-0.4-0.1-0.6c0-0.1,0-0.3-0.1-0.4c0-0.1,0-0.1,0-0.2c-0.1-0.8-0.1-1.6,0-2.4c0-0.3,0-0.6,0-0.9c0-0.1,0-0.3,0-0.4
		c0,0,0,0,0-0.1c0-1.1,0.1-2.3,0.3-3.4c0-0.2,0-0.4-0.1-0.6c-0.1,0-0.2,0-0.3,0c-0.2-4.8-0.3-9.5-0.4-14.3
		c0.6-17.2-1.3-39.9,6.4-56.4c0.6,8.1,1.5,16.1,3.3,24c2.2,10.6,10,17.9,20.2,21c27.7,7.2,37.9-12,39.5-36.5
		c0.5-4.9,0.7-9.8,0.9-14.7c0,0,0,0,0,0c2.9,5.1,5,10.7,6.7,16.1c5.2,19,5.3,38.8,5.8,58.4c0,0,0,0,0,0c0,0.1,0,0.3,0,0.4
		c0.1,1.3,0.1,2.5,0.1,3.8c0,0,0,0,0,0c0,0.4,0,0.9,0,1.3c0,1,0,1.9,0,2.9c0,0,0.1,0,0.1,0c0.3,19.4,0.3,38.8,0.2,58.2
		c-0.4,59,2,118.7,16.5,176.1c2.6,10,5.4,19.9,8.9,29.6c3.4,9.3,7.1,18.4,11,27.5c0.5,1.2,1.3,2.2,2.5,2.8c3.8,2.1,8.6-2.2,6.9-6.2
		c-6.2-14.6-12.1-29.4-16.5-44.7c-7-24.9-11.6-50.3-14.6-76c3,1.6,6,3.2,9,4.9c6.1,3.6,12,7.5,17.7,11.7c1.9,1.4,3.7,2.9,5.5,4.4
		c1.6,1.4,3.1,2.8,4.7,4.3c4.9,4.9,9.5,10.1,13.8,15.6c6.6,8.5,12.7,17.4,18.6,26.4c5.8,8.8,11.5,17.7,16.9,26.7
		c6.4,10.8,12.3,21.9,18.1,33c5.8,11.1,11.3,22.4,16.3,33.9c2.4,5.6,4.5,11.4,6.3,17.3c1.4,4.9,2.5,9.8,3.4,14.8
		c0.7,4.9,1.1,9.7,1.3,14.6c0,4-0.2,8-0.7,12c-0.6,4.6-1.3,9.3-2.2,13.8c-0.9,4.5-1.9,8.9-3,13.3c-3.2,12.2-7.2,24.1-11.4,36
		c-4,11.6-8.1,23.2-12.3,34.7c-4.6,12.6-9.3,25.1-13.2,37.9c-2,6.7-3.8,13.4-5.2,20.3c-0.7,3.4-1.1,6.8-1.6,10.1
		c-0.4,3.4-0.8,6.9-1.1,10.4c-0.5,6.9-0.6,13.9-0.1,20.8c0.5,7.4,1.3,14.7,2.6,21.9c2.4,13.5,6.4,26.7,10.6,39.7
		c4.2,13.1,8.9,25.9,13.7,38.8c4.8,12.9,9.9,25.7,15.3,38.3c2.7,6.4,5.6,12.7,8.3,19c2.8,6.3,5.5,12.6,8.2,18.9
		c1.4,3.2,2.8,6.5,4.2,9.7c0.4,0.9,0.8,1.9,1.2,2.8c0,0.1,0.1,0.2,0.1,0.3c0.3,0.8,0.7,1.6,1,2.4c0.6,1.4,1.2,2.8,1.8,4.1
		c5.3,12.3,10.8,24.5,16.5,36.6c4.3,9.1,8.8,18.2,13.8,27c0.3,0.5,0.6,0.9,1,1.3c0,0,0,0,0,0C999.5,1999.2,999.7,1999.6,999.9,2000z
		"/>
	<path style="clip-path:url(#SVGID_00000067222023812802645600000003679593430649804436_);fill:#F5BB89;" d="M787.5,1063.9
		c0,2.4-0.1,4.8-0.2,7.2c-1.1,14.3-0.2,32.1-11.3,42.9c-10.2,8.1-26.6,4.7-35-4.5c-6.7-8.1-7.3-28.4-8.1-40c0.4-0.5,0.8-1,1.3-1.5
		c10.9-10.8,28.3-16.6,43.1-11.2C781.4,1058.2,784.7,1060.8,787.5,1063.9z"/>
	<path style="clip-path:url(#SVGID_00000067222023812802645600000003679593430649804436_);fill:#D65222;" d="M1215.5,654.9
		c1.1,19.7,1,39.4-0.3,59.1c-0.7,10.1-1.7,20.1-3.1,30.1c-1.3,10.1-3.1,20.1-5,30.1c-2.1,10.3-4.5,20.5-7.3,30.6
		c-2.7,9.8-5.7,19.6-9,29.2c-3.3,9.4-7,19.2-11,28.8c-4,9.5-8.4,18.9-13,28.2l0,0.1c-0.1,0.1-0.1,0.2-0.2,0.4
		c-4.5,8.8-9.3,17.8-14.4,26.5c-5.2,8.8-10.6,17.4-16.3,25.9c-11.6,17-24.3,33.3-38,48.7c-0.5,0.5-1,1.1-1.5,1.7
		c-1.2,1.3-2.3,2.5-3.5,3.8c-2.5,2.8-5.1,5.5-7.7,8.2c-5.5,5.6-11.1,11.1-16.8,16.5c-4.6,1.5-9.4,4-12.7,4.2
		c-13.6,4-27.3,7.2-41.2,9.4c-33.1,5.4-67.1,4.8-100.6,4.3c-52.4-0.5-104.9-8.7-153.7-28.4c-61.2-22.9-113.2-64.4-161.8-107.3
		c-36.3-30.9-70.4-65.1-94.7-106.5c-24.8-40.4-40.4-83.3-47.6-126.7c28.7-23.1,58.9-44.4,89.8-64.5
		c135.1-86.6,339.9-176.4,501.8-170.9c29.6,0.8,58.8,7.4,86.6,17.3c6.9,2.7,13.6,5.8,20.1,9.3c3,1.5,6.1,4.7,9.3,3.9
		c2.7,5.2,5.4,10.6,7.9,15.9c8.6,18.3,16,37.1,22.3,56.3l0,0c0,0,0,0.1,0,0.1c2.8,8.9,5.5,17.9,7.8,27.1c2.5,9.6,4.6,19.3,6.5,29.1
		c1.9,10,3.4,20.1,4.7,30.3C1214,635.4,1214.9,645.1,1215.5,654.9z"/>
	<path style="clip-path:url(#SVGID_00000067222023812802645600000003679593430649804436_);fill:#D65222;" d="M1142.3,430.1
		c4.6,7.1,8.9,14.4,13.1,21.7c-22.3-11.6-70.1-22.4-79.6-23c-175.4-19.7-410.4,86-554.2,182.7c-23.1,15.3-45.6,31.7-67.2,49
		c-15.2-116.8,30.3-236.2,124.1-319.6c48.6-42.7,105.1-78.4,166.9-99c21.3-6.7,41.6-14,63.9-18.3c3.3,0.2,5.4-1.2,6.4-3
		c8.5,1.2,17.1,2.7,25.6,4.3c0.2,0,0.3,0.1,0.5,0.1c19.5,4,39.2,9.2,58.4,15.7c19.7,6.8,38.9,14.8,57.5,24
		c18.7,9.4,36.8,20,54.2,31.7c17.5,11.9,34.1,25,49.9,39.1c15.1,13.6,29.7,28.6,43.3,44.5C1118.3,395.5,1130.9,412.4,1142.3,430.1z"
		/>
	<path style="clip-path:url(#SVGID_00000067222023812802645600000003679593430649804436_);fill:#D65222;" d="M782.7,217
		c2.8,0.2,5.6,0.4,8.4,0.7C683.3,243.9,583,306,515.6,394.5c-59,80.6-84.5,178.5-70.5,273.3c-30.7,25.1-59.8,52.2-87.1,81.1
		c-3.5,3.5-6.9,7.1-10.3,10.7c-0.1-0.4-0.2-0.8-0.3-1.2c-0.2,0.3-0.4,0.6-0.7,0.9c-0.4,0.5-0.8,0.9-1.3,1.3
		c-0.5,0.6-0.9,1.3-1.4,1.9c-1,1.4-2,2.8-3.2,4.1c-0.3,0.3-0.7,0.6-1.1,0.9c0,0.2,0.1,0.3,0.1,0.5c-1.9,2.1-3.9,4.1-5.8,6.2
		c-16.6-76.4-15.4-155.1,3-240.2c9.8-44.3,21.6-88.9,40.3-130.2c-0.1-0.4-0.3-0.7-0.4-1.1c8.4-11.3,17.4-22.2,26.8-32.6
		c13.5-14.9,28.3-29.3,43.9-42.7c16-13.6,32.8-26,50.4-37.4c16.9-10.8,34.5-20.6,52.6-29.2c18.3-8.6,37.1-16,56.3-22.3
		c18.5-5.9,37.7-10.8,57.1-14.5c19.1-3.6,38.9-6,58.7-7.2C742.5,215.5,762.6,215.6,782.7,217z"/>
	<path style="clip-path:url(#SVGID_00000067222023812802645600000003679593430649804436_);fill:#D65222;" d="M365.4,819.4
		c-0.4-1.3-0.8-2.5-1.2-3.8c0.2,1.3,0.4,2.7,0.6,4C365,819.6,365.2,819.5,365.4,819.4z M1042.4,1040.9c2.6-0.6,5.2-1.3,7.8-2
		c-7.1,5.9-14.4,11.7-21.8,17.3c-8.5,6.3-17.2,12.3-26,18c-8.1,5.2-16.7,10.4-25.5,15.3c-8.8,4.9-17.7,9.4-26.7,13.8
		c-9.2,4.3-18.6,8.5-28.2,12.3c-9.8,3.8-19.7,7.4-29.7,10.6c-18,5.7-36.8,10.5-55.8,14.2c-7.1,1.3-14.3,2.5-21.5,3.5
		c-0.2-6.5-0.4-12.9-0.7-19.4c-1.3-25.3-4-54.7-24.5-72.2c-16.3-12.6-40.1-8.4-56,3c-13.1,8.6-18.5,24.1-20,39.1
		c-1.5,17.5-1.9,35-1.5,52.6c-3.9-0.3-7.8-0.7-11.7-1.1c-1.9-0.2-3.8-0.4-5.7-0.6c-4.1-0.5-8.2-1-12.3-1.6
		c-8.4-1.2-16.8-2.7-25.1-4.4c-19.8-4-39.8-9.5-59.4-16.2c-19-6.6-38-14.5-56.4-23.7c-12.6-6.3-25-13.2-37-20.7
		c-0.1-0.9-0.5-1.7-1.3-2.5c-1.5-1.7-3.1-3.4-4.6-5.1c-1.1-0.5-2.3-1.1-3.4-1.6c-1-0.5-2-1.1-3-1.6c-1.9-1-3.7-2.1-5.6-3.1
		c-5.6-6.7-10.9-13.6-16.2-20.6c-23.5-31.2-46.7-62.8-66.6-96.5c-31.6-53.8-54-107.2-67.1-161.8c1.9-2.1,3.8-4.1,5.7-6.2
		c0.1-0.3,0.3-0.6,0.4-0.8c0,0,0,0,0-0.1c0.1-0.1,0.1-0.2,0.2-0.3c0.2-0.3,0.5-0.7,0.8-1c0.2-0.3,0.5-0.6,0.8-0.8
		c0.2-0.2,0.4-0.4,0.7-0.7h0c0.7-0.6,1.3-1.3,2-1.9c0.4-0.4,0.9-0.7,1.3-1c0,0,0,0,0,0s0,0,0,0c0,0,0,0,0,0c0,0,0,0,0,0
		c0.1-0.1,0.2-0.2,0.3-0.4c0.2-0.3,0.5-0.6,0.8-0.9c0.1-0.1,0.2-0.3,0.3-0.4c0,0,0.1-0.1,0.1-0.1c0.1-0.1,0.2-0.3,0.3-0.4
		c0-0.1,0.1-0.1,0.1-0.1c0.2-0.2,0.5-0.5,0.7-0.7c0.2-0.2,0.4-0.3,0.6-0.5c10.8-11.4,21.8-22.6,33-33.7c19.6-20,40.3-38.8,61.9-56.6
		c6.6,36,18.9,71.5,37.4,105.2C514.5,845.7,566,892,617.8,934.9c77.7,69.7,177.9,114.4,283.1,115.5c14.2,0.4,28.4,0.7,42.6,0.7
		C976.8,1051.1,1010,1049.1,1042.4,1040.9z"/>
	<path style="clip-path:url(#SVGID_00000067222023812802645600000003679593430649804436_);fill:#D65222;" d="M459.7,1046.9
		c-7.2-5.7-14.1-11.6-21-17.7c-15.4-13.9-30.3-29.2-44.2-45.4c-13.3-15.7-25.5-32.2-36.7-49.5l0,0c0-0.1-0.1-0.1-0.1-0.2
		c-10.8-16.9-20.6-34.6-29.3-52.8c-8.4-17.8-15.9-36.7-22.1-55.9l-0.1-0.2c0,0,0,0,0-0.1c-0.4-1.3-0.8-2.6-1.2-3.9
		c1.2-1.1,2.2-2.5,3.2-3.6c6.9-7.8,13.8-15.5,20.8-23.2C351.2,881.9,395.6,964.6,459.7,1046.9z"/>
	<path style="clip-path:url(#SVGID_00000067222023812802645600000003679593430649804436_);fill:#D65222;" d="M352.7,438.2
		c-4.2,13-7.6,24.9-8.7,28c-35.4,115.4-40.3,218.9-17.8,316.3c-8.3,9-16.4,18.1-24.5,27.3c-3.9-13.9-7.3-27.9-9.9-42.1
		c-3.6-19.3-6-38.8-7.1-58.4c-1.1-20.1-1-40.2,0.4-60.4c1.4-19.7,4.2-39.9,8.2-59.8c4-19.7,9.3-39,15.7-58c1.2-3.4,2.4-6.7,3.6-10.1
		c0,0.7-0.1,1.3-0.1,2c0.7-2.1,1.4-4.2,2.1-6.4c0.6-1.7,1.2-3.4,1.9-5.1c0.7-1.9,1.4-3.8,2.3-5.7c0.4-0.8,1-1.5,1.7-2.1
		c0.2-0.4,0.3-0.8,0.5-1.2c0.6-1.5,1.9-2.5,3.4-3c0.1-1.8-0.5-3.2-1.5-4.2c3.1-7.2,6.4-14.3,9.9-21.3
		C338.8,462,345.5,450,352.7,438.2z"/>
	<path style="clip-path:url(#SVGID_00000067222023812802645600000003679593430649804436_);fill:#A02B14;" d="M1114.5,584.9
		c8.8,98.1-4.3,199.8-55.2,285.6c-52.2,94.8-137.1,173.7-239.2,211.7c-5.1,1.9-10.2,3.6-15.4,5.2c-0.2-1-0.5-1.9-0.8-2.9
		c0.3-0.9,0.3-1.9,0.1-2.9c-0.2-0.8-0.5-1.6-0.8-2.4c-0.4-0.8-0.8-1.5-1.2-2.3c-0.8-1.4-1.8-2.6-2.8-3.9c-0.2-0.2-0.3-0.3-0.5-0.5
		c-0.1-0.8-0.4-1.6-0.6-2.4c-0.5-1.5-1.1-2.9-2-4.2c-0.8-1.2-1.7-2.2-2.7-3.2c-2-1.9-4.5-3-7.1-3.9c-0.5-0.2-1-0.3-1.5-0.4
		c-0.1-0.1-0.1-0.2-0.2-0.3c-1.8-2.1-4.1-4.1-6.7-5.1c-2.9-1.2-6-1.5-9.1-1.2c-1.7,0.1-3.4,0.4-5,0.7c-0.5,0.1-1,0.2-1.5,0.4
		c-1.9-1.2-4-2-6.3-2c-5.5,0-9.6,3.8-12.5,8.1c-1.5-1.4-4.1-1.2-5.6,0.1c-0.6,0.5-1.1,1-1.6,1.6c-0.4,0.6-0.8,1.2-1.1,1.9
		c-0.3,0.7-0.7,1.3-1,1.9c-0.4,0.8-0.8,1.6-1.2,2.4c-0.2,0.1-0.3,0.2-0.5,0.3c-0.6,0.4-1.1,1-1.5,1.6c-0.2,0.1-0.4,0.1-0.7,0.2
		c-0.5,0.2-1,0.5-1.4,0.8c-0.4,0.4-0.8,0.9-1.1,1.3c-0.4,0.5-0.6,1.1-0.9,1.6c-0.4,0.8-0.9,1.7-1.3,2.5c-2,4-3.6,8.2-4.5,12.6
		c-1,4.6-1.4,9.5-1.1,14.2c0.1,0.8,0.1,1.6,0.2,2.4c-2.3,0.3-4.6,0.6-7,0.9c-26.7,3.2-53.6,6.7-80.5,6.7c-6.3,0-12.6-0.2-18.9-0.6
		c-15.4-1.4-115.1-12.8-108.9-30.4c0-0.1,0.1-0.1,0.1-0.2c-0.4-0.4-0.7-0.9-0.9-1.5c-0.1-0.2-0.2-0.4-0.2-0.6
		c-2.8-1.6-5.6-3.3-8.4-4.9c-2.2-0.8-3.4-2.4-3.7-4.1c-3-0.1-6-0.2-9-0.3c-3.3-2.7-1.3-8.6,3-8.7c15.3-0.3,30.6-0.5,45.9-0.9
		c62.3-2.9,126.1-5.4,185.5-26.1c68.4-24,127.6-68,178.6-118.8c62.8-61,105.6-140.5,128.9-224.3c15.6-56.6,23-116.8,10.4-174.8
		c-15.6-67.4-44.2-133.6-88.2-187.4c-29.7-35.5-69.5-59.8-109.5-82c-16.5-9.4-32.1-21.1-50.5-26.8c-6.3-0.4-6-10.8,0.6-10.2
		c4.1,1.1,8,2.5,11.9,4.1c0.9-0.5,2-0.7,3.4-0.4c33.6,3.5,62.6,24.1,91.4,40.2c51.6,29.8,100.4,66.4,134.6,116
		C1074.5,432.8,1112,505.6,1114.5,584.9z"/>
	<path style="clip-path:url(#SVGID_00000067222023812802645600000003679593430649804436_);fill:#AE472F;" d="M887.7,1525.6
		c0.3,5.6-8.3,7.1-9.8,1.6c-3.8-16.9-12.2-32.8-22.1-46.9c-9-12.3-20.7-22.2-31.2-33.2c-36-37-33.7-94.1-38.8-142.2
		c-1.8-30-0.5-60-0.3-90c0.1-30.7-0.8-61.4-0.7-92c0.6-16.1,1.8-32.2,3.6-48.2c0.3-5.7,8.3-6.5,9.8-1.3c-0.1,1.3-0.1,2.7-0.2,4
		c2.8,0.1,4.7,3.1,5.9,7.1c0.3,0.9,0.5,1.9,0.8,2.9c1.5,6.4,1.9,14.2,2.6,17.2c6.6,57.5-3.4,115.5,3,173c1.5,13.2,2.8,26.9,8.2,39.2
		c3.9,5.2,10.6,7.2,16.2,10.1c2.9,1.4,7.5,2.6,8.5,5.6c1,0.1,1.9,0.5,2.6,1.3c3,3.8,1.6,11.1,2.7,15.8c1.9,19.7,4.9,39.4,10.8,58.3
		c4.6,14.5,10.6,28.6,15,43.1C881.7,1475.3,884.6,1500.6,887.7,1525.6z"/>
	<path style="clip-path:url(#SVGID_00000067222023812802645600000003679593430649804436_);fill:#AE472F;" d="M989.4,2003.3
		c-0.4-1.1-0.8-2.2-1.3-3.3h-87c1.5,3.2,3.1,6.4,4.7,9.6C933.7,2007.3,961.6,2006.1,989.4,2003.3z M1004.8,2000
		c4.2,2.2,5.3,11.7-3.9,12.1c-0.9,0.1-1.8,0.2-2.8,0.3c-0.7,0.2-1.5,0.3-2.3,0.2c-26.3,2.7-52.6,4.6-79,6
		c-5.1,0.3-10.1,0.7-15.1,1.2c-3,0.5-6.7,0.8-8.1-2.5c-1.2-2.3-0.1-5.1,1.9-6.4c-1.8-3.6-3.5-7.3-5.2-11
		c-18.1-39.1-33.4-79.5-51.2-118.7c-17.5-38.8-36.8-79.5-34.9-123.1c0.8-47.6,35.9-84,58.4-123.2c20.3-34.7,44.9-68.8,53.3-108.9
		c6.7-56.2-23.9-108.2-47.3-157.2c-2.8-3.4,0.9-9.9,5.8-7.8c1.3,0.6,2.2,1.6,3,2.7c2.8,1.3,4.4,5.6,6.5,7.9
		c5.3,7.6,10.5,15.3,15.8,22.9c24,36.1,44.7,76.1,53.2,118.8c7,36.8-9.3,72.3-21.8,106.1c-11.8,31-21.6,63.4-22.2,96.8
		c-0.7,23.5-1.4,47.3,4.2,70.3c18.3,68,58.9,127.5,79,195c1,2.8,2,5.6,3,8.3c3.1,1.5,5.6,5.9,7.9,8.1c0.4,0.5,0.8,1.1,0.9,1.6
		C1004.3,1999.8,1004.5,1999.9,1004.8,2000z"/>
	<path style="clip-path:url(#SVGID_00000067222023812802645600000003679593430649804436_);fill:#AE472F;" d="M908.9,2010.1
		c0-0.8,0.1-1.6,0.5-2.3c-1.8,0.1-3.6,0.1-5.4,0.2c-5.4,0.2-7.2-7.2-2.3-9.5c24.6-2.4,49.6-1.5,74.3-1.3c5.5,0.7,17.2-2.7,16.4,6.3
		c-0.8,4.1-5.6,4.4-9,4.8c-7.6,0.8-15.2,1.4-22.8,2.1c-10.5,1-21,2.2-31.5,3.2c-5,0.5-10,1-15.1,1.4
		C911.4,2015.2,909,2012.8,908.9,2010.1z"/>
	<path style="clip-path:url(#SVGID_00000067222023812802645600000003679593430649804436_);fill:#AE472F;" d="M897.8,2012.8
		c-2-5.4,3.1-7.5,7.6-7.5c9.4-1.1,18.9-1.6,28.4-2c6.5-0.2,7,9.6,0.4,10c-4.2,0.2-8.4,0.4-12.7,0.7c-4.4,0.3-8.7,0.6-12.4,0.9
		C905.4,2015,899.9,2017.4,897.8,2012.8z"/>
	<path style="clip-path:url(#SVGID_00000067222023812802645600000003679593430649804436_);fill:#AE472F;" d="M713.7,1422.9
		c-5.2,0.1-15.6-17.4-19.4-21.9c-16.5-23.3-30.5-48.7-45.6-72.7c-2-5.8,6.3-9.3,9.2-4c2.6,3.6,4.8,7.4,7.1,11.1
		c1.8-1.8,4.8-1.9,6.8-0.2c15.5,14,32.1,26.7,46.9,41.3c5.5,5.3,6.9,11.1,5.5,18.4C722.8,1401.8,723.5,1423.6,713.7,1422.9z
		 M685.7,1369.8c4.9,7.8,9.8,15.5,15.1,23c3.7,5.3,7.6,10.6,11.6,15.8c0.9-5.2,1.5-10.2,2-15.4c0.3-2.8,1-5.7-1.3-7.9
		c-12-12.8-26.3-23.4-39.3-35.1C677.6,1356.7,681.6,1363.3,685.7,1369.8z"/>
	<path style="clip-path:url(#SVGID_00000067222023812802645600000003679593430649804436_);fill:#AE472F;" d="M710.5,1404.3
		c-8.3-4-13.4-12.7-19.1-19.7c-3.8-4.9-7.4-10-10.8-15.1c-1.5-2.2-1-5.3,1.1-6.8c-3.6-3.8-7.2-7.5-11-11.1c-1.4-1.4-3.2-2.7-3.9-4.6
		c-1.8-5.9,6-9.2,9.3-4.1c14.7,14.2,28.4,29.4,42,44.6C722.3,1393.7,720.6,1407.5,710.5,1404.3z"/>
	<path style="clip-path:url(#SVGID_00000067222023812802645600000003679593430649804436_);fill:#AE472F;" d="M706.3,1405.9
		c-2.6-0.7-3.1-3.4-3.9-5.5c-9.3-13.8-19.2-27.6-27.1-42.3c-1.2-5.7,7-8.4,9.4-3.1c5.2,8.3,10.3,16.7,15.7,24.9
		c3.8,6,8.6,11.5,11.7,17.9C714.4,1401.8,711.2,1407.6,706.3,1405.9z"/>
	<path style="clip-path:url(#SVGID_00000067222023812802645600000003679593430649804436_);fill:#AE472F;" d="M704.5,1405
		c-1.3-2.8-3.3-5.5-3.9-8.6c-0.4-2.7,2.1-5.1,4.7-5.3c5.1-0.3,5.8,6,8.1,9.4C716.3,1406.2,707.5,1410.7,704.5,1405z M710.6,1395.7
		c-0.1-0.5-0.2-1.1-0.4-1.6C710.4,1394.7,710.5,1395.2,710.6,1395.7z"/>
	<path style="clip-path:url(#SVGID_00000067222023812802645600000003679593430649804436_);fill:#AE472F;" d="M706.8,1407
		c-0.9-3.1-3.6-6.8-1.5-9.9c1.4-2.1,4.1-2.9,6.4-1.8c3.1,1.6,3.1,5.6,4.5,8.4C718.3,1409.8,709.1,1413.1,706.8,1407z"/>
	<path style="clip-path:url(#SVGID_00000067222023812802645600000003679593430649804436_);fill:#FAAC66;" d="M640.2,1515.9
		c-6.6-1.4-8.2-11.7-11.2-16.9c-12.1-28.2-25.8-56-33.9-85.7c-5.4-19.6-10.2-39.6-11-60c0-7.1-1.5-33.7,11-27.9
		c0.1-5.5,7.3-8.3,10-2.9c1.2,3.1-0.9,6.4-0.5,9.7c-0.1,20.5,5.8,40.4,12.3,59.6c10.4,28.8,19.7,58.1,24,88.5
		c1.5,8.6,2.9,17.3,4.5,25.9C646.7,1510.3,645.8,1516.2,640.2,1515.9z"/>
	<path style="clip-path:url(#SVGID_00000067222023812802645600000003679593430649804436_);fill:#FAAC66;" d="M587.8,1559.9
		c-7.2-25-22.4-46.9-33.4-70c-6.4-13.9-10.7-28.7-14.4-43.5c-1.8-7.1-3.7-14.3-5.3-21.1c-0.4-1.7-0.8-3.3,0.1-4.9
		c1.8-3.4,6.7-3.6,8.7-0.3c0.6,0.9,0.9,3.3,1.2,4c6.2,25.2,12.2,51,24.9,73.8c9.1,16.3,18.4,32.5,24.8,50.1
		c1.3,4.8,6.5,12.7-0.3,15.3C591.5,1564,588.5,1562.5,587.8,1559.9z"/>
	<path style="clip-path:url(#SVGID_00000067222023812802645600000003679593430649804436_);fill:#FAAC66;" d="M558.6,1601.2
		c-1.2-0.6-2-1.7-2.5-3c-3.4-8.9-6.7-17.8-9.9-26.7c-3.4-9.4-6.6-18.9-9.8-28.4c-6.8-19.5-12.7-39.4-14.2-60
		c-0.5-7.9-2.5-37.8,2.4-42.5c2.8-2.3,7.4-0.5,7.9,3.1c0.1,2.4-0.4,4.7-0.5,7.1c-2.6,29.1,2.9,58.3,12.8,85.6
		c6.6,19.8,13.6,39.4,21.1,58.9C567.2,1599.2,562.3,1603.3,558.6,1601.2z"/>
	<path style="clip-path:url(#SVGID_00000067222023812802645600000003679593430649804436_);fill:#651006;" d="M775.7,1089.1
		c0.1,0,0.3-0.1,0.4-0.1c0,0.1-0.1,0.2-0.1,0.3C775.9,1089.2,775.8,1089.1,775.7,1089.1z"/>
	<path style="clip-path:url(#SVGID_00000067222023812802645600000003679593430649804436_);fill:#651006;" d="M815.1,1147.3
		c-1.2-0.7-2-1.9-2.2-3.2c-2,0.5-4,0.9-5.9,1.4c0-0.6,0-1.2,0-1.8c0-0.4,0-0.9,0-1.3c0-0.1,0-0.2,0-0.4c0-0.2,0-0.4,0.1-0.6
		c0.2-1.4,0.5-2.8,0.8-4.3c0.2-1.1,0.5-2.2,0.7-3.3c0.3-1.5,0.7-3,1-4.5c0-0.2,0.1-0.3,0.1-0.5c0.5-2-0.4-4.1-2.3-4.9
		c-0.5-0.2-1-0.3-1.5-0.3c0-0.1,0-0.1,0-0.2c0-0.9,0-1.9-0.1-2.8c-0.1-0.6-0.2-1.2-0.3-1.8c-0.3-1.4-1-2.6-2.2-3.3
		c0-0.5,0-1.1,0-1.6c0-0.7,0-1.4-0.1-2.1c-0.1-1.3-0.2-2.6-0.3-3.9c0.1-2.1,0.2-4.1,0.3-6.2c0.1-2.6,0.2-5.2,0.2-7.8
		c0-2-0.2-4-0.6-6c-0.2-0.9-0.3-1.9-0.6-2.8c-0.2-0.7-0.5-1.3-0.9-1.9c-0.4-0.6-0.8-1.1-1.3-1.5c19.2-6.5,38-14.2,56.3-23.1
		c18.3-9,36-19.2,52.8-30.4c16.6-11.1,32.5-23.3,47.6-36.5c14.8-13,28.7-26.9,41.7-41.6c12.8-14.6,24.8-30,35.3-45.6
		c11-16.3,20.9-33.2,29.8-50.7c8.8-17.4,16.4-35.4,22.8-53.2c0.2-0.5,0.3-1,0.4-1.1c6.6-18.7,11.9-37.8,16.1-57.2
		c4.1-19.7,7-39.6,8.6-59.1c1.5-20.1,1.8-40.2,0.8-60.3c-1.1-20.6-3.6-41.1-7.4-61.2c-3.8-20-9-39.7-15.3-58.8
		c0-0.1-0.1-0.3-0.1-0.4l0-0.1c-6.6-19.6-14.4-38.7-23.2-56.6c-9-18.3-19.2-36.1-30.5-53.1c-11.2-16.6-23.4-32.5-36.1-47.1
		c-13-14.9-27-28.9-41.8-41.9c-14.6-12.8-30-24.7-46-35.7c-16.3-11-33.2-20.9-50.1-29.5c-17.4-8.8-35.3-16.5-53.6-23
		c-0.1,0-0.1,0-0.2-0.1c-0.1-0.1-0.3-0.1-0.3-0.1c-2.6-0.9-5.2-1.8-7.8-2.7c1,0,2.1-0.1,3.1-0.1c0.8,0,1.7-0.1,2.5-0.1
		c0.7,1.1,1.8,1.9,3,2.3c1.9,0.7,3.9,1.1,5.9,1.4c0.9,0.1,1.7,0.2,2.6,0.3c1.7,0.2,3.4,0.3,5,0.5c1.6,0.1,3.3,0.2,4.9,0.3
		c0.8,0,1.6,0,2.4,0c0.8,0.1,1.6,0.2,2.4,0.2c0.1,0,0.2,0,0.3,0c1.4,0,2.8-0.4,3.9-1.3c0.2-0.1,0.4-0.1,0.6-0.2
		c0.6,0.3,1.2,0.5,1.8,0.8c8.7,3.7,17.2,7.6,25.7,11.9c4.9-4.4,23.5,4.4,28.7,5.3c19.5,6.4,39,13.1,57.5,22.1
		c113.9,53.5,200.2,157.2,242.3,274.8c13.6,37,25.3,75.4,24.4,115.1c-0.7,4.3,1.3,13.9-0.1,19.5c3,10.1,1.6,30.6,2,35.8
		c0.3,36.5-9.5,71.9-17.7,107.2c-10.3,50-20.2,67.5-47.3,109.6c-12.4,21.1-23,43.6-40,61.6c-29.9,34.1-63.9,64.7-102.1,89.2
		c-5.9,3.9-11.8,7.9-17.6,11.9c-5.3,3.6-10.5,7.3-15.8,10.9c-0.4,0.7-0.9,1.3-1.7,1.9c-13,8.1-27.1,13.4-41.1,19.3
		c-15.2,6.8-31,11.5-47,15.3c0,1.8-1.1,3.6-3.8,4.7c-16.1,5.7-32.8,9.4-49.5,12.7c-4.1,0.4-11.2,2.7-16.2,2.7
		C817.3,1148,816.1,1147.8,815.1,1147.3z"/>
	<path style="clip-path:url(#SVGID_00000067222023812802645600000003679593430649804436_);fill:#651006;" d="M714.2,1153
		c-29.6-2.4-58.7-9.1-87.7-15.5c-26.9-5.9-52.3-17.3-76.5-30.3c-1.9-0.8-2.9-2.6-2.9-4.4c-0.9-0.2-1.8-0.4-2.7-0.6
		c-12.1-2.9-24.1-6.4-35.9-10.2c-0.3-0.8-0.6-1.5-1-2.2c-0.5-0.9-1.1-1.7-1.6-2.6c0-0.1-0.1-0.1-0.1-0.2c-1.1-2.1-3.7-3-5.9-2.5
		c-0.4-0.4-0.9-0.8-1.3-1.2c-0.2-0.2-0.4-0.4-0.6-0.7c-1.1-1.3-2.5-2.1-4.2-2.1c-0.6,0-1.2,0.1-1.8,0.3c-0.1-0.1-0.2-0.2-0.3-0.3
		c-3-2.7-6.2-5.1-9.5-7.5c-1.6-1.2-3.3-2.3-5-3.4c-0.1,0-0.1-0.1-0.2-0.1c5.9,2.5,11.8,4.8,17.7,7c2.3,0.9,4.7,1.7,6.9,2.5
		c0.1,0,0.2,0.1,0.3,0.1l0.2,0.1c17.3,6.1,35,11.2,53,15.2c1.4,0.3,2.8,0.6,3.5,0.8c19.8,4.2,39.9,7.1,60.1,8.8
		c20.2,1.6,40.5,1.8,60.8,0.8c14.1-0.8,28.1-2.2,42-4.2c-0.1,1.5-0.2,3-0.3,4.5c-0.2,3.7-0.3,7.3-0.4,11c-0.1,3.4-0.2,6.8-0.1,10.1
		c0,2.2,0,4.5,0,6.7c0,1.8,0.2,3.6,0.2,5.3c0.2,4,0.5,8.1,1.3,12c0.2,1,0.4,2.1,0.7,3.1C719.9,1153.3,717,1153.2,714.2,1153z"/>
	<path style="clip-path:url(#SVGID_00000067222023812802645600000003679593430649804436_);fill:#F69C4C;" d="M1000.2,445.3
		c2.5,1,3.7,4.2,2.6,6.7c0.3,1.7-0.2,3.5-1.7,4.7c-4.6,2.5-10.5,2.2-15.5,3.6c-18,3.8-34.6,7.9-52,13
		C871.9,493.2,811.8,518.1,755,549c-45,24.2-89.3,50.8-126.7,86c-14.1,14.5-34.9,33.2-26.7,55.5c10.4,21.8,32.6,35.5,54,44.9
		c60,22.5,123.2,35.6,185.8,48.4c21.2,4.2,42.6,7.3,64.1,9.3c11.2,1.2,22.4,2.4,33.6,3.6c3.1-0.7,6.1-1.3,7.8,1.5
		c3.3,2.6,2,9.6-3.4,9c-1-0.1-2-0.2-3.1-0.2c-7.2,1.6-17.6,0.8-21.5,1.4c-21.4,0.2-42.8-0.6-64.3-1.4c-42.8-2.1-85.4-7.2-127.4-15.6
		c-31.2-6.2-61.7-16.1-93.1-21.1c-122.2-18-101.7,44.1-37.4,112.5c39.9,36.9,82.8,70.3,122,108.1c0.5,0.5,0.9,1,1.2,1.5l0,0
		c4,3.2,0.5,10.6-4.9,8.6c-60.6-13.7-113.4-60.2-157.8-101.7c-21.7-20.6-40.5-44.9-65.5-61.7c-31.4-19.3-66.7-6.7-76.8,29.2
		c-6.9,23.8-2.6,48.9,3,72.5c3.3,12.9,7.3,25.5,12.2,37.9l0,0c2.8,2.4,4.5,5.9,6.5,8.9c2.7,4.3,5.5,8.6,8.3,12.9
		c9.9,15.6,19.5,31.4,30.2,46.6c0.7,1.1,1,2.3,0.8,3.3c1.9,3.9-2.8,9.6-7.4,6.4c-37-23.7-69.7-54.2-93.7-91.1
		c-38.2-51.7-64.6-111.2-84.4-172c-12.9-45-11.8-92.7-8.6-139c4-52.6,14.3-106.1,36.9-154.1c9-19.3,29.2-26.3,23.1,2.6
		c-5.6,27.9-10.1,56.4-7.7,84.9c3.4,20.3,7.8,42.5,21,58.8c18.2,16.9,36,4.1,41.2-16.9c14.4-79.6,26-160.6,76-227.3
		c27.4-40.6,64.6-73.9,107.2-97.8c42.3-24.8,89.1-43.3,138.5-46.4c2.8-0.3,4.6,1,5.5,2.8c2.7,1.7,3.7,6,0.2,8.4
		c-21.7,15.5-42.3,31-61.2,49.7c-31,31.6-58.6,66.8-85.1,102.1c-12.4,17.5-22.5,36.7-31.1,56.3c-6.5,14-10.9,29.4-8.9,45
		c2.2,16,5.8,32.1,25.3,32c28.7-1.9,55.9-13.5,83.1-22.2c89.7-30.8,179.5-64.4,273.4-80.1c22.4-3.3,45.1-5.9,67.8-5.9
		C991.3,445.2,996,444.4,1000.2,445.3z"/>
	<path style="clip-path:url(#SVGID_00000067222023812802645600000003679593430649804436_);" d="M736.1,2027.5
		c-5.1-1.4-3.3-7.1-3.9-11c-0.9-12-2.7-23.9-4.5-35.8c-6.1-37.3-12.4-74.5-19.4-111.6c-12.4-68.8-37.8-100.3-81.3-152
		c-46.2-58.5-83.5-124.4-104.2-196.3c-6.6-28-20.1-72.4,6.9-92.8c5.2-3.8,11.2,3.9,6.1,7.9c-4.5,3.1-7.9,7.7-9.7,12.8
		c-7.1,31.6,4.6,64.4,14.4,94.2c19.2,55.6,48.4,107.3,83.9,154.1c29.1,39.4,66.3,74.6,81.2,122.5c17.9,58.5,25,119.7,34.9,180
		C740.4,2007,747.7,2029,736.1,2027.5C736.1,2027.5,736.1,2027.5,736.1,2027.5z"/>
	<path style="clip-path:url(#SVGID_00000067222023812802645600000003679593430649804436_);" d="M610.1,1606.8
		c-4.2-0.2-4.6-4.6-6.1-7.6c-2.6-6.2-5.3-12.5-8.3-18.6c-10.4-21.7-23.4-41.9-35.7-62.4c-15.5-25.7-28-54-30-84.3
		c-4.4-33,12.4-64.8,47.7-68.4c2.7-0.3,5.2,1.9,5.4,4.6c0.2,6.9-8.2,5.1-12.6,6.9c-20.3,6-31.8,25.6-30.9,46.2
		c0.3,20,4.5,40,12.6,58.3c15.4,34.6,39.1,64.8,54.7,99.4c1.7,3.6,3.2,7.2,4.8,10.9C613.8,1596.5,619.2,1606.2,610.1,1606.8z"/>
	<path style="clip-path:url(#SVGID_00000067222023812802645600000003679593430649804436_);" d="M660.8,1573
		c-38.3-67.3-73.5-138.7-85.4-216c-1.6-17.1,7.5-35.9,24-42.2c17.1-5.9,36.7-8.2,53.6-0.4c8.1,3.6,13.9,10.8,20.6,16.4
		c13.5,11.9,26.9,23.9,40.4,35.8c4,3.4,7.9,6.9,12.1,10.1c2.4,1.5,3.3,4.8,1.6,7.1c-1.5,2.3-5,3.1-7.2,1.2
		c-4.8-3.7-9.4-7.6-13.9-11.6c-15.4-13.6-30.7-27.1-46-40.8c-14.5-16.8-39.3-15.2-58.4-8.2c-12.8,5.5-18.7,21.1-16.5,34.3
		c2.2,14.3,5.6,28.5,9.6,42.4c9,33.8,22.4,66.1,37.4,97.6c7.8,16.3,16.3,32.3,25,48.1c3.5,6.3,6.9,12.8,10.4,19.1
		c1.1,1.2,1.8,2.8,1.4,4.6C668.9,1574.6,663.4,1576.1,660.8,1573z"/>
	<path style="clip-path:url(#SVGID_00000067222023812802645600000003679593430649804436_);" d="M706.2,1495.7
		c-3.9-0.2-5.9-4.7-3.9-7.9c1.6-4.1,2.7-8.3,3.8-12.6c2.6-10.1,4.6-20.3,6.4-30.5c9-44.6,12-90.1,9.7-135.5
		c-1.5-71.6-14.6-143.3-8.4-215c1.5-15,6.8-30.5,20-39.1c15.9-11.4,39.7-15.5,56-3c20.4,17.5,23.2,46.9,24.5,72.2
		c1.7,35.6,0.9,71.3,1.1,106.9c0.2,55.6,4.1,111.8,19.3,165.5c4.3,15.3,10.2,30.1,16.5,44.7c1.7,4-3.1,8.3-6.9,6.2
		c-1.2-0.6-2-1.6-2.5-2.8c-3.9-9.1-7.6-18.2-11-27.5c-3.5-9.7-6.3-19.6-8.9-29.6c-14.5-57.4-16.9-117.1-16.5-176.1
		c0.1-20.7,0.1-41.5-0.3-62.2c0-0.1,0-0.1,0-0.2c0-1.2-0.1-2.5-0.1-3.7c-0.6-19.7-0.6-39.8-5.8-58.9c-3.8-11.8-9.4-25.2-21.7-30.1
		c-14.8-5.4-32.2,0.5-43.1,11.2c-14.5,16.3-11.5,44.8-12.3,65.4c0.1,6.1,0.3,12.3,0.5,18.4c0,0.1,0,0.3,0,0.4c0,1.3-0.1,2.6,0.1,3.9
		c0,0.2,0.1,0.4,0.1,0.6c2.7,64.6,10.7,129,10.1,193.8c-0.2,40-6.8,79.6-15,118.6c-2.1,6.2-4.3,26.7-11.2,26.7
		C706.5,1495.7,706.3,1495.7,706.2,1495.7z"/>
	<path style="clip-path:url(#SVGID_00000067222023812802645600000003679593430649804436_);" d="M1001.1,1999.9
		c-1.3-0.4-2.2-1.3-2.9-2.5c-5-8.8-9.5-17.9-13.8-27c-5.7-12.1-11.2-24.3-16.5-36.6c-0.6-1.4-1.2-2.8-1.8-4.1
		c-0.3-0.8-0.7-1.6-1-2.4c0-0.1-0.1-0.2-0.1-0.3c-0.5-0.9-0.8-1.9-1.2-2.8c-1.4-3.2-2.8-6.5-4.2-9.7c-2.7-6.3-5.5-12.6-8.2-18.9
		c-2.8-6.3-5.6-12.6-8.3-19c-5.4-12.7-10.5-25.5-15.3-38.3c-4.8-12.8-9.5-25.7-13.7-38.8c-4.2-13-8.2-26.2-10.6-39.7
		c-1.3-7.3-2.1-14.6-2.6-21.9c-0.4-6.9-0.3-13.9,0.1-20.8c0.2-3.5,0.6-6.9,1.1-10.4c0.4-3.4,0.9-6.8,1.6-10.1
		c1.3-6.8,3.1-13.6,5.2-20.3c3.9-12.8,8.7-25.4,13.2-37.9c4.2-11.5,8.3-23.1,12.3-34.7c4.1-11.9,8.1-23.8,11.4-36
		c1.1-4.4,2.1-8.8,3-13.3c0.9-4.6,1.6-9.2,2.2-13.8c0.4-4,0.6-8,0.7-12c-0.1-4.9-0.6-9.8-1.3-14.6c-0.8-5-2-9.9-3.4-14.8
		c-1.8-5.9-3.9-11.6-6.3-17.3c-5-11.5-10.5-22.8-16.3-33.9c-5.8-11.1-11.6-22.2-18.1-33c-5.4-9-11.1-17.9-16.9-26.7
		c-6-9-12-17.9-18.6-26.4c-4.3-5.4-8.9-10.7-13.8-15.6c-1.5-1.5-3.1-2.9-4.7-4.3c-1.8-1.5-3.6-3-5.5-4.4
		c-5.7-4.2-11.6-8.2-17.7-11.7c-4.5-2.5-9-4.8-13.5-7.3c-0.8-0.5-1.6-0.9-2.5-1.4c-1.2-0.7-2.1-1.6-2.7-3c-0.8-1.8-0.1-4.1,1.4-5.4
		c1-0.9,2.3-1.3,3.6-1.3c1.1,0,2.2,0.5,3,1.2c4.7,2.6,9.6,5,14.3,7.7c6.1,3.4,12,7.3,17.7,11.4c2.9,2.1,5.7,4.3,8.4,6.6
		c2.4,2.1,4.7,4.3,6.9,6.5c4.1,4.2,8,8.7,11.7,13.3c4.2,5.2,8.1,10.6,11.9,16.1c4.1,5.9,8.1,11.8,12,17.8c7.1,10.9,14,22,20.3,33.3
		c3.5,6.2,6.8,12.6,10.1,18.9c3.4,6.4,6.6,12.9,9.8,19.5c3.1,6.4,6.1,12.8,8.9,19.3c2.6,6.1,4.8,12.3,6.6,18.6
		c1.9,6.5,3.2,13.2,4,20c0.8,7.1,1,14.4,0.2,21.5c-1.4,13.5-4.4,26.9-8.2,39.9c-3.8,13-8.4,25.7-12.8,38.5
		c-4.3,12.5-9,24.9-13.5,37.4c-4,10.9-7.8,21.9-10.8,33.1c-1.7,6.7-3,13.5-3.9,20.3c-0.9,7.3-1.4,14.5-1.3,21.8
		c0.1,7.3,0.8,14.6,1.8,21.9c0.7,5,1.7,10,2.8,14.9c1,4.5,2.2,8.9,3.5,13.4c3.8,13.1,8.1,26.1,12.8,39c4.6,12.8,9.4,25.5,14.5,38.1
		c2.1,5.2,4.3,10.4,6.5,15.6c4.5,10.3,9,20.6,13.5,30.9c4.3,10,8.7,19.9,13,29.9c4.9,11.3,10,22.6,15.3,33.7
		c4.1,8.6,8.3,17.1,13,25.3c1.4,2.4,0.2,5.5-2.2,6.7c-0.7,0.4-1.5,0.5-2.3,0.5C1002.1,2000.1,1001.6,2000.1,1001.1,1999.9z
		 M814.8,1317.3c0.2,0,0.5,0,0.7,0c0,0,0,0,0,0c0.2,0,0.4-0.1,0.7-0.1c0,0,0,0,0,0c0.2-0.1,0.4-0.1,0.6-0.2c0,0,0,0,0,0
		C816.1,1317.2,815.5,1317.3,814.8,1317.3z"/>
	<path style="clip-path:url(#SVGID_00000067222023812802645600000003679593430649804436_);" d="M1005.7,2007.8
		c-3.9-1.8-4.7-6.9-7.1-10.1c-1.4-1.7-1.7-4.1-0.6-6c1.3-2.2,4.2-3.1,6.5-1.9c1.1,0.5,1.8,1.4,2,1.8c1.8,3,3.4,6.2,5.2,9.3
		C1013.9,2004.6,1009.7,2009.4,1005.7,2007.8z"/>
	<path style="clip-path:url(#SVGID_00000067222023812802645600000003679593430649804436_);" d="M841.3,224.9
		C841.2,224.9,841.2,224.9,841.3,224.9z"/>
	<path style="clip-path:url(#SVGID_00000067222023812802645600000003679593430649804436_);" d="M694.1,1153.4c0,0-0.1,0-0.1,0
		c0,0-0.1,0-0.1,0c-1.8-0.2-3.7-0.4-5.5-0.7c-11.6-1.5-23.1-3.5-34.5-5.8c-0.1,0-0.1,0-0.2-0.1c-12.5-2.6-24.9-5.7-37.1-9.3
		c-28.1-8.2-55.4-19.1-81.5-32.3c-30.3-15.4-58.9-34.1-85.3-55.6c-25.6-21-49-44.6-69.8-70.4c-22.3-27.7-41.4-58-56.9-89.9
		c-15-30.9-26.6-63.4-34.6-96.7c-7.3-30.7-11.6-62-12.7-93.5c-1.2-31.8,0.9-63.8,6.2-95.2c5.4-31.9,13.9-63.2,25.7-93.4
		c12-30.8,27.2-60.4,45.3-88.1c18.8-28.8,40.8-55.5,65.3-79.5c12.4-12.2,25.5-23.7,39.2-34.4c14.5-11.3,29.6-21.8,45.3-31.4
		c30.3-18.6,62.8-33.6,96.4-44.9c32.7-11,66.6-18.4,100.9-22c31.6-3.3,63.5-3.5,95.1-0.5c36.1,3.5,71.9,11,106.3,22.7
		c33.3,11.3,65.3,26.1,95.3,44.4c30,18.3,58.1,39.9,83.4,64.5c26,25.2,49.1,53.4,68.7,83.8c18.8,29.2,34.5,60.5,46.5,93.1
		c6,16.4,11.2,33.1,15.3,50c4.4,18.1,7.8,36.4,10.2,54.9c4.5,35.3,4.8,71.2,1.3,106.6c-3.6,36.3-11.6,72.1-23.3,106.5
		c-11.8,34.6-27.8,67.7-47.2,98.7c-9.7,15.5-20.4,30.5-31.9,44.7c-2.7,3.4-5.5,6.7-8.3,10c-1.3,1.6-2.7,3.1-4,4.7
		c-0.6,0.7-1.3,1.4-1.9,2.2c-0.4,0.5-0.8,0.9-1.2,1.4c-0.2,0.2-0.3,0.3-0.5,0.5c-0.1,0.1-0.2,0.2-0.3,0.4c-0.2,0.2-0.4,0.5-0.6,0.7
		c-0.1,0.1-0.1,0.1-0.2,0.2c-0.2,0.2-0.4,0.4-0.6,0.6c-25,27.6-53.1,52.2-83.8,73.3c-30.9,21.2-64.4,38.7-99.4,52
		c-34.3,13.1-70,22-106.4,26.9c-2.5,0.3-5,0.6-7.5,0.9c0-1,0-1.9,0-2.9c0-1.7-0.1-3.4-0.1-5.1c0-0.1,0-0.3,0-0.4
		c10.6-1.3,21.1-2.9,31.5-4.8c19.1-3.6,37.9-8.4,55.8-14.2c10-3.2,19.9-6.8,29.7-10.6c9.6-3.8,19-7.9,28.2-12.3
		c9-4.3,17.9-8.9,26.7-13.8c8.8-4.9,17.5-10.1,25.5-15.3c8.9-5.8,17.6-11.7,26-18c8.4-6.3,16.5-12.8,24.5-19.5
		c11.2-9.6,22-19.7,32.3-30.3c2.6-2.7,5.2-5.4,7.7-8.2c1.2-1.3,2.3-2.5,3.5-3.8c0.4-0.6,1-1.1,1.5-1.7c13.7-15.4,26.4-31.7,38-48.7
		c5.7-8.5,11.1-17.1,16.3-25.9c5.2-8.8,10-17.7,14.4-26.5c0.1-0.1,0.1-0.2,0.2-0.4l0-0.1c4.6-9.3,8.9-18.6,13-28.2
		c4.1-9.7,7.8-19.4,11-28.8c3.3-9.7,6.3-19.4,9-29.2c2.8-10.1,5.1-20.4,7.3-30.6c2-10,3.7-20,5-30.1c1.3-10,2.3-20,3.1-30.1
		c1.3-19.7,1.4-39.4,0.3-59.1c-0.6-9.8-1.4-19.5-2.6-29.2c-1.3-10.1-2.8-20.2-4.7-30.3c-1.9-9.8-4-19.4-6.5-29.1
		c-2.3-9.1-5-18.2-7.8-27.1c0,0,0-0.1,0-0.1l0,0c-6.3-19.2-13.7-38-22.3-56.3c-8.7-18.2-18.4-35.8-29.3-52.8
		c-11.4-17.7-24-34.6-37.2-50.2c-13.6-15.9-28.2-30.8-43.3-44.5c-15.8-14.1-32.4-27.2-49.9-39.1c-17.4-11.7-35.5-22.3-54.2-31.7
		c-18.7-9.2-37.8-17.2-57.5-24c-19.3-6.5-38.9-11.8-58.4-15.7c-0.2,0-0.3-0.1-0.5-0.1c-19.4-3.8-39.1-6.5-58.5-7.9
		c-20.1-1.4-40.3-1.5-59.8-0.4c-19.9,1.2-39.7,3.6-58.7,7.2c-19.4,3.7-38.6,8.6-57.1,14.5c-19.2,6.2-38,13.7-56.3,22.3
		c-18.1,8.6-35.7,18.4-52.6,29.2c-17.6,11.4-34.4,23.8-50.4,37.4c-15.7,13.4-30.5,27.8-43.9,42.7c-14.2,15.8-27.4,32.6-39.4,50.2
		c-11.8,17.4-22.4,35.5-31.8,54.3c-9.1,18.5-17.1,37.5-23.8,56.9c-6.5,19-11.7,38.4-15.7,58c-4,19.9-6.7,40-8.2,59.8
		c-1.4,20.1-1.5,40.3-0.4,60.4c1.2,19.6,3.6,39.1,7.1,58.4c3.7,19.4,8.5,38.5,14.5,57.3c0,0,0,0,0,0.1l0.1,0.2
		c6.3,19.3,13.7,38.1,22.1,55.9c8.7,18.3,18.5,36,29.3,52.8c0,0.1,0.1,0.1,0.1,0.2l0,0c11.2,17.3,23.4,33.8,36.7,49.5
		c13.8,16.2,28.7,31.5,44.2,45.4c15.6,13.9,32.1,26.9,49.4,38.6c17.2,11.6,35.1,22.1,53.6,31.4c18.5,9.2,37.5,17.1,56.4,23.7
		c19.6,6.7,39.6,12.2,59.4,16.2c8.3,1.7,16.7,3.1,25.1,4.4c4.1,0.6,8.2,1.1,12.3,1.6c1.9,0.2,3.8,0.4,5.7,0.6
		c5.6,0.6,11.3,1.1,16.8,1.5c1.8,0.1,3.6,0.2,5.3,0.3c0,0.2,0,0.4,0.1,0.6c-0.2,1.3-0.2,2.6-0.3,3.9c0,1.3-0.1,2.6,0.1,3.8
		C713,1155.3,703.5,1154.5,694.1,1153.4z"/>
	<path style="clip-path:url(#SVGID_00000067222023812802645600000003679593430649804436_);" d="M319.7,505.4
		c-0.1,0.1-0.1,0.3-0.2,0.4c0,0,0,0.1-0.1,0.1C319.6,505.8,319.6,505.6,319.7,505.4z"/>
	<path style="clip-path:url(#SVGID_00000067222023812802645600000003679593430649804436_);" d="M314,498.6c0,0.5,0,1,0.2,1.4
		c-0.7-8.8,10.3-7.6,10-0.1c-1.5,0.4-2.8,1.5-3.4,3c-0.2,0.4-0.3,0.8-0.5,1.2c-0.7,0.5-1.3,1.2-1.7,2.1c-0.8,1.9-1.6,3.8-2.3,5.7
		c-0.6,1.7-1.3,3.4-1.9,5.1c-0.7,2.1-1.4,4.2-2.1,6.4C312.8,515,313.3,506.8,314,498.6z"/>
	<path style="clip-path:url(#SVGID_00000067222023812802645600000003679593430649804436_);" d="M339.7,767.3
		c0.4-0.2,0.7-0.5,1.1-0.9c1.2-1.2,2.2-2.7,3.2-4.1c0.5-0.6,1-1.3,1.4-1.9c0.5-0.4,0.9-0.8,1.3-1.3c0.2-0.3,0.5-0.6,0.7-0.9
		c1.1,4.1,2.2,8.2,3.4,12.2c-0.7,0.7-1.4,1.6-2,2.4c-1.2,0.8-2.3,1.9-3.4,3c-0.9,0.9-1.8,1.8-2.4,2.9
		C341.8,775,340.7,771.2,339.7,767.3z"/>
	<path style="clip-path:url(#SVGID_00000067222023812802645600000003679593430649804436_);" d="M364.2,815.6
		c0.4,1.3,0.8,2.5,1.2,3.8c-0.2,0.1-0.4,0.2-0.5,0.2C364.6,818.3,364.4,817,364.2,815.6z"/>
	<path style="clip-path:url(#SVGID_00000067222023812802645600000003679593430649804436_);" d="M496,1082.8
		c-8.3-8.9-16.2-18-23.7-27.2c0.2,0.1,0.4,0.2,0.6,0.3c1.2,0.7,2.5,1.5,3.7,2.2c0.5,0.5,1.1,1,1.7,1.4c1.1,0.7,2.2,1.4,3.3,2
		c1.7,1,3.4,2,5.1,3c1.9,1.1,3.7,2.1,5.6,3.1c1,0.5,2,1.1,3,1.6c1.1,0.6,2.2,1.1,3.4,1.6c1.5,1.7,3.1,3.4,4.6,5.1
		c3.4,3.5-0.1,8.5-3.9,8.5c0,0,0,0,0,0C498.3,1084.5,497.1,1084,496,1082.8z"/>
	<path style="clip-path:url(#SVGID_00000067222023812802645600000003679593430649804436_);" d="M810.9,213.3c-0.3,0.1-0.7,0.1-1,0.2
		C810.2,213.4,810.5,213.4,810.9,213.3z"/>
	<path style="clip-path:url(#SVGID_00000067222023812802645600000003679593430649804436_);" d="M900.9,1050.3
		c-105.2-1.1-205.4-45.8-283.1-115.5C566,892,514.5,845.7,484.4,784.4c-68.8-125.8-52.6-275.3,31.2-389.9
		c71.4-93.6,179.4-157.7,294.3-181c-0.1,0-0.2,0.1-0.3,0.1c4.7-0.9,6.9,2,6.7,4.9c-0.2,2.7-2.6,5.4-7,5.1
		c-22.3,4.2-42.6,11.5-63.9,18.3c-61.8,20.6-118.3,56.3-166.9,99c-131.7,117.1-168.3,305.4-74.8,457.7
		c24.2,41.4,58.4,75.6,94.7,106.5c48.6,42.8,100.6,84.3,161.8,107.3c48.8,19.7,101.3,27.9,153.7,28.4c33.5,0.5,67.5,1.1,100.6-4.3
		c13.9-2.3,27.7-5.5,41.2-9.4c6.8-0.6,20.3-10.3,24-2.4c0,0,0,0,0,0.1c-0.4,0.3-0.7,0.6-1,1c-0.2,0.2-0.4,0.4-0.7,0.6
		c-0.4,0.3-0.8,0.6-1.2,0.8c-0.8,0.6-1.6,1.2-2.4,1.9c-0.9,0.9-1.8,1.8-2.6,2.9c-0.2,0.2-0.3,0.5-0.5,0.7c-9.6,3-19.2,5.9-29,8.3
		c-32.3,8.2-65.6,10.2-98.9,10.2C929.3,1051.1,915.1,1050.7,900.9,1050.3z"/>
	<path style="clip-path:url(#SVGID_00000067222023812802645600000003679593430649804436_);" d="M297.4,822.3c-2-1.8-2.3-5-0.5-7.1
		c19.8-22.6,40.1-44.8,61.1-66.3c49.2-51.9,104-98,163.6-137.5c143.8-96.7,378.9-202.4,554.2-182.7c13.2,0.9,100.7,21.4,90.2,36.6
		c-3.9,4.2-8-0.4-11.7-2.3c-6.5-3.5-13.2-6.6-20.1-9.3c-27.8-9.9-57-16.6-86.6-17.3c-161.9-5.6-366.7,84.2-501.8,170.9
		c-57.6,37.5-112.5,79.3-160.7,128.5c-11.2,11.1-22.2,22.3-33,33.7c-0.2,0.1-0.4,0.3-0.6,0.5c-1,0.9-1.8,2-2.7,3
		c0,0-0.1,0.1-0.1,0.1c-1.2,0.8-2.3,1.9-3.4,2.9c-1.1,1.1-2.2,2.3-2.8,3.7c-11.6,12.5-23,25.1-34.3,37.9c-2.1,2.4-4.6,6-7.7,6
		C299.5,823.5,298.5,823.2,297.4,822.3z M1158.6,458.7c0.5-0.5,1-0.9,1.6-1.1C1159.6,457.8,1159,458.2,1158.6,458.7z"/>
	<path style="clip-path:url(#SVGID_00000067222023812802645600000003679593430649804436_);" d="M482.9,1075.7
		c-155.6-186.4-211.6-373-138.9-609.4c3.4-8.9,24.3-89.5,33.4-62.7c-18.7,41.4-30.5,85.9-40.3,130.2
		c-32.5,150.4-11.2,281.1,66.9,413.8c19.9,33.7,43.1,65.2,66.6,96.5c6.4,8.5,13,16.8,19.8,24.9
		C494.6,1073.6,487.2,1080.7,482.9,1075.7z"/>
	<path style="clip-path:url(#SVGID_00000067222023812802645600000003679593430649804436_);" d="M714.8,1431.8
		c-4.7-1.4-11-12.4-14.6-16.5c-8.4-11.4-15.7-23.6-22-36.3c-1.7-3.3-3.3-6.7-5-10.1c-2.1-3-2.7-7.7,1.5-9.3c5.2-1.9,7.1,4.1,8.9,7.7
		c1.7,3.5,3.4,6.9,5.2,10.4c3.5,6.8,7.4,13.5,11.5,20c5.9,9.2,12.5,17.8,19.5,26.2C722.4,1427.3,719,1432.7,714.8,1431.8z"/>
	<path style="clip-path:url(#SVGID_00000067222023812802645600000003679593430649804436_);" d="M751.9,1121.8
		c-10.2-3.1-18-10.4-20.2-21c-2.4-10.8-3.2-21.8-3.8-32.8c-0.2-3.3,4.6-3.8,5-0.5c0.9,11.3,1.1,33.3,8.2,41.8
		c8.4,9.2,24.8,12.5,35,4.5c11-10.7,10.2-28.6,11.3-42.9c0.2-4.1,0.3-8.1,0.2-12.2c-0.2-1.5,1.1-2.8,2.6-2.8c1.4,0,2.4,1.2,2.4,2.6
		c0.1,4,0,8-0.2,12c-0.2,4.9-0.4,9.8-0.9,14.7C789.7,1109.9,779.6,1129.1,751.9,1121.8z"/>
	<path style="clip-path:url(#SVGID_00000067222023812802645600000003679593430649804436_);fill:#47389A;" d="M1435.8,428.1
		c0-2.5-0.2-5-0.3-7.4c-0.3-2.4-0.5-4.7-0.9-7.1c-0.3-2.3-0.8-4.6-1.3-6.9c-0.6-2.4-1.2-4.7-1.8-7.1c-0.6-2.2-1.4-4.4-2.1-6.5
		c-1.3-3.3-2.8-6.6-4.3-9.9c-2.1-4.1-4.4-8.1-6.8-12c-1.2-1.7-2.4-3.4-3.6-5c-1.4-1.8-2.9-3.5-3.9-4.6c-2-2.1-4-4-6.1-5.9
		c-2.1-1.7-4.3-3.3-6.5-4.9c-2.3-1.4-4.6-2.7-6.9-4c-1.5-0.7-3-1.4-4.5-2c-1.5-0.6-3-1.1-4.5-1.6c-2.7-0.8-5.3-1.4-8-2
		c-1.9-0.3-3.9-0.7-5.9-0.9c-2.3-0.2-4.5-0.4-6.8-0.5c-5.7-0.2-11.3,0-17,0.4c-8,0.8-15.9,2-23.8,3.7c-10.3,2.3-20.3,5.4-30.3,8.8
		c-6.1,2.2-12.1,4.5-18,7c-6.2,2.7-12.3,5.6-18.3,8.6c-0.8,0.4-1.7,0.9-2.6,1.3c-0.9,0.5-1.8,0.9-2.7,1.3c-2.8,1.4-5.5,2.9-8.3,4.4
		c-1.3,0.7-2.5,1.4-3.8,2.1c-0.5,0.3-1,0.6-1.5,0.9c-1.1,0.6-2.2,1.3-3.3,1.9c-0.5,0.3-1.1,0.6-1.6,1c-0.4,0.2-0.7,0.4-1.1,0.7
		c-0.6,0.4-1.2,0.7-1.8,1.1c-1.3,0.8-2.6,1.6-3.8,2.4c0.1,0,0.2-0.1,0.2-0.1c0.6-0.2,1.1-0.4,1.7-0.7c1.7-0.7,3.4-1.3,5.1-2
		c0.8-0.3,1.6-0.6,2.5-0.9c0.3-0.1,0.5-0.2,0.8-0.3c0.6-0.2,1.2-0.4,1.8-0.7c1.2-0.4,2.3-0.8,3.5-1.3c0.9-0.3,1.8-0.6,2.7-1
		c0.7-0.2,1.3-0.5,2-0.7c0.5-0.2,1-0.3,1.5-0.5c0.8-0.3,1.6-0.5,2.4-0.8c0.8-0.3,1.7-0.6,2.5-0.8c0.6-0.2,1.2-0.4,1.8-0.6
		c0.7-0.2,1.3-0.4,2-0.6c0.6-0.2,1.1-0.4,1.7-0.5c1.2-0.4,2.4-0.7,3.6-1.1c10.6-3.2,21.3-5.9,32.2-7.7c10.9-1.8,22-3,33-1.9
		c9,0.9,18.3,3.7,24.8,10.2c2.9,2.9,5.1,6.5,6.3,10.4c1.4,4.5,1.7,9.2,1.3,13.8c-0.5,5.4-1.9,10.8-3.7,15.9
		c-1.8,5.1-4.1,10.1-6.6,14.9c-5.2,9.8-11.3,19.2-17.9,28.1c-14.1,19.1-30.1,36.7-46.8,53.5c-16.5,16.6-33.8,32.4-51.5,47.7
		c-17.6,15.2-35.8,29.7-54.3,43.8c-18.5,14-37.3,27.6-56.5,40.7c-19.3,13.1-38.9,25.8-58.8,37.9c-20.3,12.3-40.9,24.1-61.8,35.2
		c-2.8,1.5-5.5,2.9-8.3,4.3c-0.8,0.4-1.5,0.8-2.3,1.2c-1.2,0.6-2.4,1.2-3.6,1.9c-1.1,0.6-2.3,1.2-3.4,1.7c-0.1,0.1-0.2,0.1-0.3,0.2
		c1.9-0.7,3.8-1.4,5.7-2c13-4.7,26.1-9.3,39-14.2c12.9-4.8,25.6-9.9,38.4-14.9c12.7-5,25.3-10.2,37.9-15.4
		c26-10.9,51.7-22.4,77.2-34.5c9.2-4.4,18.2-8.9,26.7-13.1c12.4-6.3,24.8-12.7,37-19.3c12.5-6.8,24.9-13.8,37.2-20.9
		c12.2-7.1,24.3-14.3,36.2-21.9c5.9-3.7,11.7-7.5,17.5-11.2c5.5-3.6,11-7.1,16.4-10.8c1.1-0.7,2.2-1.5,3.3-2.2
		c6.1-4.2,12.2-8.4,18-12.8c6.1-4.6,12.1-9.4,17.9-14.3c3.4-3,6.8-6.1,10-9.4c3.4-3.5,6.7-7,9.9-10.7c1.7-2,3.3-4.1,5-6.1
		c1.5-2,2.9-4.1,4.3-6.2c1.3-2.1,2.6-4.2,3.9-6.4c1.3-2.2,2.4-4.5,3.6-6.8c1.1-2.3,2.1-4.6,3.1-7c1-2.2,1.7-4.6,2.5-6.9
		c0.5-1.9,1-3.7,1.5-5.6c0.4-1.8,0.8-3.6,1.1-5.4c0.3-1.6,0.5-3.3,0.7-4.9c0.2-2.1,0.4-4.1,0.6-6.2
		C1435.7,432.9,1435.8,430.5,1435.8,428.1z M1445.9,417.9c0.4,3.5,0.6,7,0.6,10.5c0,7.1-0.5,14.1-1.9,21.1
		c-1.3,6.5-2.9,13.1-5.6,19.2c-1.5,3.4-3,6.7-4.7,10c-1.4,2.8-2.9,5.5-4.6,8.2c-1.9,2.9-3.8,5.8-5.8,8.7c-2,2.7-4.1,5.3-6.2,7.9
		c-4.6,5.5-9.6,10.5-14.7,15.5c-4.9,4.8-10.3,9.2-15.6,13.5c-10.8,8.6-22.1,16.7-33.7,24.3c-11.6,7.7-23.4,15.3-35.2,22.8
		c-11.7,7.4-23.6,14.4-35.6,21.4c-12,7-24.1,13.8-36.4,20.3c-24.9,13.4-50.2,26.2-75.8,38.1c-25.4,11.8-51.1,23.1-77,33.8
		c-12.7,5.2-25.4,10.3-38.1,15.3c-12.7,5-25.5,9.9-38.4,14.6c-25.1,9.2-50.3,18.2-75.5,27.1c-12.2,4.3-24.4,8.6-36.7,12.8
		c-11.4,3.9-23,7.5-34.6,11c-0.9,0.3-1.7,0.5-2.6,0.8c0,0-0.1,0-0.1,0c-1.1,0.3-2.1,0.2-3.1-0.1c-2,0.5-3.9,1-5.7,1.7
		c-4.7,2.2-11.8,0.3-10.4-5.9c0.3-1.9,3.1-4.1,6.5-5.9c0.7-1.6,2.1-2.9,3.9-3.3c0.1,0,0.1,0,0.2,0c0,0,0.1,0,0.1,0
		c4-0.9,7.9-2,11.9-3.1c20.4-5.8,40.3-13.3,59.2-21.4c21.5-9.2,42.6-19.5,63.3-30.4c16.8-8.9,33.3-18.2,49.7-27.8
		c20-11.9,39.7-24.3,59.1-37.2c19.2-12.9,38.2-26.1,56.7-40c8-6,16-12.1,23.7-18c18.5-14.5,36.6-29.5,54.2-45.1
		c13.5-11.9,26.6-24.3,39.3-37.1c14.4-14.6,28.2-29.8,40.7-46.1c6.1-8,11.9-16.3,17-25c2.8-4.9,5.5-10,7.7-15.2
		c1.3-3.2,2.5-6.5,3.5-9.9c0.5-2.1,1-4.2,1.3-6.4c0.2-1.5,0.3-3.1,0.3-4.6c0-1.1-0.1-2.2-0.2-3.3c-0.2-1-0.3-1.9-0.6-2.9
		c-0.2-0.7-0.5-1.4-0.7-2.1c-0.3-0.6-0.6-1.2-0.9-1.8c-0.4-0.6-0.7-1.1-1.1-1.6c-0.4-0.5-0.8-0.9-1.2-1.4c-0.5-0.5-1.1-1-1.7-1.4
		c-0.7-0.5-1.4-1-2.1-1.4c-0.9-0.5-1.9-1-2.9-1.4c-1.3-0.5-2.6-1-4-1.4c-2-0.5-4-0.9-6-1.2c-3.2-0.4-6.5-0.6-9.8-0.6
		c-5.4,0.1-10.7,0.6-16.1,1.2c-10.2,1.4-20.3,3.7-30.1,6.4c-16.3,4.6-32.3,10.3-48.1,16.7c-4,1.6-8,3.3-11.8,4.9
		c-0.2,0.1-0.4,0.1-0.5,0.2l-0.1,0c-5.6,2.4-11.2,4.9-16.7,7.4c-2.7,1.2-5.9,0.3-7.2-2.4c-0.6-1.2-0.7-2.6-0.4-3.9c0,0,0-0.1,0-0.1
		c-0.1-1,0-1.9,0.3-2.9c0.4-0.9,1-1.6,1.6-2.4c0.9-1,2-1.9,3.1-2.8c1.3-1.1,2.6-2.1,3.9-3.2c5.1-4.1,10.6-7.7,16.1-11.3
		c11.5-7.6,23.4-14.5,35.6-20.7c0.4-0.2,0.8-0.4,1.2-0.6c0.2-0.1,0.4-0.2,0.6-0.3c0,0,0,0,0,0c0.1-0.1,0.2-0.1,0.4-0.2
		c0.5-0.3,1-0.5,1.5-0.8c0.5-0.3,1-0.5,1.5-0.8c1.5-0.7,3-1.5,4.5-2.2c3.1-1.5,6.2-2.9,9.3-4.3c11.9-5.4,24.2-9.8,36.6-13.6
		c12.9-3.9,26-6.7,39.4-8.2c6.9-0.8,13.9-1.1,20.9-0.8c6.8,0.2,13.5,1.1,20.1,2.8c6.5,1.7,12.9,4.1,18.8,7.5
		c3.1,1.8,6.1,3.8,8.9,5.9c1.3,1,2.6,2.1,3.8,3.2c1.3,1.2,2.7,2.3,3.9,3.6c2.4,2.5,4.8,5.1,6.9,7.9c2.2,2.8,4.1,5.8,6,8.8
		c1.9,3,3.5,6.1,5.1,9.3c1.5,2.9,2.9,5.9,4.1,9c1.3,3.2,2.5,6.5,3.4,9.9c1,3.7,1.9,7.3,2.6,11
		C1445.1,411.1,1445.6,414.5,1445.9,417.9z"/>
	<path style="clip-path:url(#SVGID_00000067222023812802645600000003679593430649804436_);fill:#47389A;" d="M488.5,939.2
		c7.7-6.3,15.2-12.7,22.3-19.6c-56.1,32.5-111.3,66.4-165.4,102.1c-23.9,14.5-46.7,35-74.9,39.7c-15.3,0.7-20.8-7.8-20.8-20.7
		c0-0.4,0-0.8,0-1.3c0-0.5,0-1.1,0.1-1.7c0-0.1,0-0.2,0-0.4c0-0.2,0-0.3,0-0.5c0-0.3,0.1-0.7,0.1-1c0-0.2,0-0.4,0.1-0.6
		c0-0.5,0.1-0.9,0.2-1.4c0-0.2,0.1-0.5,0.1-0.7c0.1-0.4,0.1-0.8,0.2-1.1c0-0.3,0.1-0.6,0.1-0.8c0.1-0.7,0.2-1.5,0.4-2.2
		c0-0.2,0.1-0.5,0.1-0.7c0.1-0.4,0.2-0.9,0.3-1.3c0.1-0.3,0.1-0.6,0.2-0.9c0.5-2.4,1.1-4.9,1.8-7.4c0.1-0.5,0.3-1.1,0.4-1.6
		c0-0.1,0.1-0.2,0.1-0.3c0.2-0.5,0.3-1.1,0.5-1.6c0.5-1.6,1-3.1,1.5-4.7c0.1-0.3,0.2-0.6,0.3-1c0.1-0.4,0.2-0.7,0.4-1.1
		c0.1-0.3,0.2-0.6,0.3-0.9c0.1-0.3,0.2-0.6,0.3-1c0.4-1.3,0.9-2.6,1.4-3.9c0.1-0.3,0.2-0.6,0.4-1c0.2-0.5,0.4-1,0.5-1.5
		c0.1-0.3,0.2-0.6,0.4-0.9c1-2.8,2.1-5.5,3.3-8.3c0.1-0.3,0.3-0.6,0.4-1c0.3-0.7,0.6-1.4,0.9-2.1c0.2-0.4,0.4-0.9,0.5-1.3
		c0.2-0.4,0.3-0.7,0.5-1.1c0.4-1,0.9-2.1,1.3-3.1c-1.3,1.9-2.7,3.8-4,5.7c-0.4,0.6-0.8,1.2-1.2,1.8c-0.3,0.4-0.6,0.9-0.9,1.3
		c-0.5,0.7-1,1.5-1.5,2.2c-0.4,0.5-0.7,1.1-1.1,1.6c-1.4,2.1-2.7,4.1-4.1,6.2c-0.6,0.9-1.2,1.8-1.7,2.7c-0.7,1.1-1.4,2.2-2.1,3.3
		c-0.7,1-1.3,2.1-2,3.1c-0.1,0.1-0.1,0.2-0.2,0.3c-0.6,0.9-1.2,1.9-1.8,2.8c-0.1,0.2-0.2,0.3-0.3,0.5c-0.5,0.9-1.1,1.7-1.6,2.6
		c-0.9,1.4-1.8,2.9-2.6,4.3c-0.5,0.9-1.1,1.8-1.6,2.7c-0.7,1.3-1.5,2.5-2.2,3.8c-0.7,1.1-1.3,2.3-2,3.4c-0.5,0.9-1,1.8-1.6,2.7
		c-0.3,0.5-0.6,1.1-0.9,1.6c-0.5,0.9-1,1.7-1.5,2.6c-0.6,1.1-1.2,2.2-1.8,3.3c-0.1,0.2-0.2,0.4-0.3,0.6c-0.6,1-1.1,2-1.6,3
		c-1.9,3.5-3.8,7.1-5.7,10.6c-50.2,99.8,18.1,52,66.5,20.6c63.4-40.9,126.2-82.8,187.1-127.4c0.1-0.1,0.1-0.2,0.2-0.3
		c0,0,0.1-0.1,0.1-0.1c0.1-0.1,0.1-0.2,0.2-0.2c0.1-0.1,0.1-0.1,0.2-0.2c0.1-0.1,0.1-0.1,0.2-0.2c0.2-0.2,0.4-0.4,0.6-0.5
		c0.1-0.1,0.2-0.1,0.2-0.2c0,0,0,0,0.1,0c0.1-0.1,0.2-0.1,0.2-0.1c0.5-0.3,1-0.5,1.6-0.7c0.1,0,0.1,0,0.2-0.1c0.1,0,0.1,0,0.2,0
		c0.1,0,0.2,0,0.3-0.1c0.2-0.1,0.4-0.3,0.6-0.4c0.2-0.1,0.4-0.3,0.6-0.4c0.6-0.4,1.3-0.9,1.9-1.3c0.1-0.1,0.2-0.1,0.3-0.2
		c0.2-0.1,0.4-0.3,0.6-0.4c0.2-0.1,0.4-0.3,0.6-0.4c0.4-0.3,0.7-0.5,1.1-0.8c0.2-0.1,0.3-0.2,0.5-0.4c0.8-0.6,1.4-1.2,1.9-1.7
		c0.1-0.1,0.1-0.1,0.2-0.2C488.4,939.3,488.5,939.3,488.5,939.2z M507.5,909.1c6.5-4.8,23.7-9.5,21.4,4c-6,13.2-19.3,21.6-29.7,31.2
		c-6.7,5.6-13.5,10.9-20.3,16.3c-0.8,0.6-1.7,1-2.7,1.1c-1.5,1-2.9,2.1-4.2,3.2c-14.3,10.3-28.9,20.1-43.3,30.1
		c-66.8,44.2-131.7,94.2-203.3,129.7c-86.8,14.6,31.2-148.6,49.9-172.2c3.2-3.2,5.5-8.2,9.3-10.7c0.4-1.1,0.8-2,1.1-2.9
		c2.6-6.5,12.6-2.5,10,4c-3.7,8.9-8,17.5-11.9,26.3c-19.5,49.9-54.7,116.3,30.6,59.9C377.7,987.2,441.8,946.9,507.5,909.1z"/>
	<path style="clip-path:url(#SVGID_00000067222023812802645600000003679593430649804436_);fill:#FFF628;" d="M1435.4,420.7
		c0.2,2.5,0.3,4.9,0.3,7.4c0,2.4-0.1,4.8-0.2,7.2c-0.2,2.1-0.3,4.1-0.6,6.2c-0.2,1.7-0.5,3.3-0.7,4.9c-0.4,1.8-0.7,3.6-1.1,5.4
		c-0.4,1.9-0.9,3.7-1.5,5.6c-0.8,2.3-1.5,4.7-2.5,6.9c-1,2.4-2.1,4.7-3.1,7c-1.2,2.3-2.3,4.6-3.6,6.8c-1.3,2.1-2.5,4.3-3.9,6.4
		c-1.4,2.1-2.8,4.2-4.3,6.2c-1.6,2.1-3.3,4.1-5,6.1c-3.2,3.6-6.5,7.2-9.9,10.7c-3.2,3.2-6.6,6.3-10,9.4c-5.8,5-11.8,9.7-17.9,14.3
		c-5.9,4.5-12,8.6-18,12.8c-1.1,0.7-2.2,1.5-3.3,2.2c-5.4,3.7-10.9,7.2-16.4,10.8c-5.8,3.8-11.6,7.5-17.5,11.2
		c-11.9,7.5-24,14.8-36.2,21.9c-12.3,7.1-24.7,14.1-37.2,20.9c-12.2,6.6-24.6,13-37,19.3c-8.4,4.3-17.5,8.8-26.7,13.1
		c-25.4,12.1-51.2,23.6-77.2,34.5c-12.6,5.3-25.2,10.4-37.9,15.4c-12.8,5.1-25.5,10.1-38.4,14.9c-13,4.9-26,9.5-39,14.2
		c-1.9,0.7-3.8,1.4-5.7,2c1.6-0.8,3.2-1.6,4.7-2.4c0.9-0.4,1.8-0.9,2.6-1.3c0,0,0,0,0.1,0c0.8-0.4,1.5-0.8,2.2-1.2
		c2.8-1.4,5.6-2.9,8.3-4.3c21-11.1,41.6-22.9,61.8-35.2c19.9-12.1,39.6-24.8,58.8-37.9c19.2-13.1,38-26.6,56.5-40.7
		c18.5-14.1,36.7-28.6,54.3-43.8c17.7-15.3,35.1-31,51.5-47.7c16.7-16.8,32.6-34.4,46.8-53.5c6.6-8.9,12.7-18.3,17.9-28.1
		c2.5-4.8,4.8-9.8,6.6-14.9c1.8-5.1,3.2-10.5,3.7-15.9c0.4-4.7,0.1-9.4-1.3-13.8c-1.2-3.9-3.4-7.5-6.3-10.4
		c-6.5-6.6-15.8-9.3-24.8-10.2c-11-1.1-22.1,0-33,1.9c-10.9,1.8-21.6,4.6-32.2,7.7c-0.8,0.2-1.5,0.5-2.3,0.7
		c-0.5,0.2-1.1,0.3-1.6,0.5c-0.5,0.1-1,0.3-1.4,0.4c-2.1,0.7-4.2,1.3-6.3,2c-0.8,0.3-1.6,0.5-2.4,0.8c-1.2,0.4-2.4,0.8-3.7,1.3
		c-0.9,0.3-1.7,0.6-2.6,0.9c0,0-0.1,0-0.1,0c-1.1,0.4-2.3,0.8-3.4,1.2c-0.6,0.2-1.2,0.4-1.8,0.7c-0.3,0.1-0.5,0.2-0.8,0.3
		c-0.8,0.3-1.6,0.6-2.5,0.9c-0.9,0.3-1.8,0.7-2.7,1c-0.8,0.3-1.7,0.6-2.5,1c-0.7,0.2-1.3,0.5-2,0.8c1.3-0.8,2.6-1.6,3.8-2.4
		c0.5-0.3,1-0.6,1.5-0.9c1-0.6,2-1.2,3-1.8c0.7-0.4,1.4-0.8,2.1-1.2c0.5-0.3,1.1-0.6,1.6-0.9c0.3-0.2,0.7-0.4,1-0.6
		c1.2-0.7,2.5-1.4,3.8-2.1c2.7-1.5,5.5-3,8.3-4.4c0.9-0.4,1.8-0.8,2.7-1.3c0.9-0.4,1.7-0.9,2.6-1.3c6-3,12.1-5.9,18.3-8.6
		c5.9-2.6,12-4.9,18-7c10-3.5,20-6.5,30.3-8.8c7.9-1.7,15.8-2.9,23.8-3.7c5.7-0.4,11.3-0.6,17-0.4c2.3,0.1,4.5,0.3,6.8,0.5
		c2,0.2,3.9,0.5,5.9,0.9c2.7,0.6,5.4,1.3,8,2c1.5,0.5,3,1,4.5,1.6c1.5,0.6,3,1.3,4.5,2c2.4,1.2,4.7,2.6,6.9,4
		c2.2,1.5,4.4,3.1,6.5,4.9c2.1,1.9,4.2,3.8,6.1,5.9c1,1.2,2.5,2.8,3.9,4.6c1.3,1.7,2.5,3.3,3.6,5c2.5,3.9,4.7,7.9,6.8,12
		c1.5,3.2,3,6.5,4.3,9.9c0.8,2.2,1.5,4.3,2.1,6.5c0.6,2.3,1.3,4.7,1.8,7.1c0.5,2.3,1,4.6,1.3,6.9
		C1434.9,416,1435.2,418.3,1435.4,420.7z"/>
	<path style="clip-path:url(#SVGID_00000067222023812802645600000003679593430649804436_);fill:#FFF628;" d="M510.8,919.6
		c-7.1,7-14.6,13.3-22.3,19.6c-0.6,0.7-1.4,1.4-2.3,2.1c-0.1,0.1-0.3,0.2-0.4,0.3c-0.2,0.1-0.3,0.3-0.5,0.4
		c-1.5,1.1-3.3,2.4-5.2,3.6c-0.2,0-0.4,0.1-0.5,0.1c-0.1,0-0.1,0-0.2,0c0,0,0,0,0,0c-0.1,0-0.3,0.1-0.4,0.1
		c-0.3,0.1-0.5,0.2-0.8,0.3c-0.1,0.1-0.3,0.1-0.4,0.2c-0.1,0-0.2,0.1-0.2,0.1c-0.1,0.1-0.2,0.1-0.3,0.2c-0.1,0.1-0.2,0.1-0.2,0.2
		c-0.3,0.2-0.5,0.5-0.8,0.7c-0.1,0.1-0.1,0.1-0.1,0.2c-0.1,0.1-0.2,0.3-0.3,0.4c-60.8,44.6-123.7,86.5-187.1,127.4
		c-48.4,31.4-116.7,79.2-66.5-20.6c1.4-2.7,2.8-5.4,4.3-8c0.5-0.9,0.9-1.7,1.4-2.6c0.5-1,1.1-2,1.6-3c1.2-2.2,2.4-4.3,3.6-6.5
		c0.2-0.4,0.4-0.7,0.6-1.1c0.1-0.2,0.2-0.3,0.3-0.5c0.5-0.9,1-1.8,1.6-2.7c1.9-3.3,3.9-6.6,5.8-9.9c0.4-0.7,0.9-1.4,1.3-2.2
		c0.3-0.6,0.7-1.1,1-1.7c3.3-5.4,6.7-10.8,10.1-16.1c0.6-0.9,1.1-1.7,1.7-2.6c0.1-0.2,0.3-0.4,0.4-0.6c0.6-0.9,1.2-1.9,1.9-2.8
		c0-0.1,0.1-0.1,0.1-0.2c0.3-0.5,0.6-0.9,0.9-1.4c0.5-0.7,1-1.5,1.5-2.2c1.1-1.6,2.2-3.2,3.3-4.8c0.4-0.6,0.8-1.1,1.2-1.7
		c0.5-0.8,1.1-1.5,1.6-2.2c-0.6,1.4-1.2,2.8-1.8,4.2c-0.2,0.4-0.4,0.9-0.5,1.3c0,0.1-0.1,0.1-0.1,0.2c-0.3,0.6-0.5,1.3-0.8,1.9
		c-0.1,0.3-0.3,0.6-0.4,1c-0.3,0.6-0.5,1.3-0.8,1.9c-0.8,2.1-1.7,4.2-2.5,6.3c-0.1,0.3-0.2,0.6-0.4,0.9c-0.5,1.5-1.1,2.9-1.6,4.4
		c-0.2,0.6-0.5,1.3-0.7,1.9c-0.4,1.3-0.9,2.6-1.3,3.8c-0.1,0.4-0.3,0.8-0.4,1.2c-0.4,1.2-0.8,2.4-1.1,3.5c-0.2,0.5-0.3,1-0.4,1.5
		c-0.1,0.2-0.1,0.4-0.2,0.6c-0.1,0.5-0.3,0.9-0.4,1.4c-0.2,0.6-0.3,1.3-0.5,1.9c-0.1,0.3-0.2,0.6-0.2,0.9c-0.2,0.6-0.3,1.3-0.5,1.9
		c-0.1,0.6-0.3,1.1-0.4,1.6c-0.2,1.1-0.5,2.2-0.7,3.2c0,0.2-0.1,0.5-0.1,0.7c-0.1,0.4-0.1,0.8-0.2,1.2c-0.1,0.4-0.1,0.7-0.2,1.1
		c-0.1,0.7-0.2,1.5-0.3,2.2c0,0.2,0,0.3-0.1,0.5c-0.1,0.7-0.2,1.4-0.2,2c0,0.3-0.1,0.7-0.1,1c0,0.2,0,0.3,0,0.5c0,0.1,0,0.2,0,0.4
		c0,0.3,0,0.7,0,1c0,0.2,0,0.4,0,0.7c0,0.2,0,0.4,0,0.5c0,0.2,0,0.5,0,0.7c0,3.1,0.3,6,1,8.5c0.1,0.3,0.2,0.6,0.2,0.8
		c0.1,0.4,0.3,0.8,0.4,1.1c0.1,0.4,0.3,0.7,0.4,1c0.5,1.1,1.1,2.1,1.8,3c0.1,0.2,0.3,0.4,0.4,0.5c0.2,0.2,0.4,0.4,0.6,0.7
		c0.1,0.1,0.2,0.2,0.3,0.3c0.1,0.1,0.2,0.2,0.3,0.3c0.3,0.3,0.6,0.5,0.9,0.7c3.3,2.6,8,4,14.4,3.6c28.2-4.7,51-25.2,74.9-39.7
		C399.5,986,454.8,952.1,510.8,919.6z"/>
	<path style="clip-path:url(#SVGID_00000067222023812802645600000003679593430649804436_);fill:#FFF628;" d="M1170.8,985.3
		c15.7,41.2-24.8,100.8-70.3,94.7c-5.6-1.2-12.8,0.1-17-4.4c-2.3-3.1-0.5-7.4,2.5-9.3c9.7-7,21.7-8.3,32.1-14
		c15.6-9.5,26.5-25.2,33.3-41.9c4.3-9.6,4-21.2,8.9-30.4C1164.5,976.2,1169.6,980.8,1170.8,985.3z"/>
	<path style="clip-path:url(#SVGID_00000067222023812802645600000003679593430649804436_);fill:#FFF628;" d="M413.6,246.4
		c5.8-3,19.7-15.5,20.9-2.7c-5.5,9.3-16.7,15.1-24.5,22.9c-34.4,28.8-62.5,65.2-88.9,101.1c-17.1,24.5-34.5,49.3-46,77.1
		c-7.3,17.3-14.2,34.8-18.4,53.1c-2.5,10.6-4.8,21.2-7.1,31.8c-2.2,7-2.2,27.7-13.8,19.5c-6.4-13.2-2.9-29.5-3.4-43.8
		c-0.1-32,5.9-62.7,19.4-91.9C281.6,339.3,345.7,285.3,413.6,246.4z"/>
</g>
</svg>
